<svg width="19" height="19" viewBox="0 0 19 19" fill="none" xmlns="http://www.w3.org/2000/svg">
<path fill-rule="evenodd" clip-rule="evenodd" d="M3.5 4.23928V3.75C3.5 1.67894 5.06701 0 7.00001 0C8.93299 0 10.5 1.67894 10.5 3.75V4.23928C10.7734 4.31705 11.0447 4.40397 11.3136 4.5L13.5214 5.28849C13.7006 5.3525 13.8481 5.49143 13.9303 5.67368C14.0125 5.85595 14.0224 6.06607 13.9579 6.25627L11.493 13.5189C11.1912 14.4081 10.4025 15 9.51938 15H4.48061C3.59754 15 2.80882 14.4081 2.50704 13.5189L0.0421473 6.25627C-0.0224207 6.06607 -0.0124736 5.85595 0.0697274 5.67368C0.151928 5.49143 0.299405 5.3525 0.47864 5.28849L2.68641 4.5C2.95529 4.40397 3.22662 4.31705 3.5 4.23928ZM4.9 3.75C4.9 2.50736 5.84017 1.5 7.00001 1.5C8.15984 1.5 9.10001 2.50736 9.10001 3.75V3.92423C8.40638 3.80844 7.70428 3.75 7.00001 3.75C6.29573 3.75 5.59365 3.80844 4.9 3.92423V3.75ZM3.5 5.79754V6C3.5 6.41423 3.81341 6.75 4.2 6.75C4.58661 6.75 4.9 6.41423 4.9 6V5.44445C5.59237 5.31527 6.29496 5.25 7.00001 5.25C7.70505 5.25 8.40764 5.31527 9.10001 5.44445V6C9.10001 6.41423 9.4134 6.75 9.80001 6.75C10.1866 6.75 10.5 6.41423 10.5 6V5.79754C10.6242 5.83724 10.7478 5.87907 10.8709 5.92303L12.3964 6.46785L11.9413 7.80863L11.5131 7.5792C11.316 7.4736 11.084 7.4736 10.887 7.5792L9.80001 8.1615L8.71305 7.5792C8.516 7.4736 8.28402 7.4736 8.08697 7.5792L7.00001 8.1615L5.91304 7.5792C5.71599 7.4736 5.48402 7.4736 5.28696 7.5792L4.2 8.1615L3.11305 7.5792C2.91599 7.4736 2.68402 7.4736 2.48696 7.5792L2.05868 7.80863L1.60363 6.46785L3.12913 5.92303C3.2522 5.87907 3.37584 5.83724 3.5 5.79754ZM11.2 9.0885L11.4597 9.22763L11.0193 10.5254C10.9737 10.5385 10.9294 10.5565 10.887 10.5792L9.80001 11.1615L8.71305 10.5792C8.516 10.4736 8.28402 10.4736 8.08697 10.5792L7.00001 11.1615L5.91304 10.5792C5.71599 10.4736 5.48402 10.4736 5.28696 10.5792L4.2 11.1615L3.11305 10.5792C3.07062 10.5565 3.02628 10.5385 2.98075 10.5254L2.5403 9.22763L2.8 9.0885L3.88696 9.6708C4.08402 9.7764 4.31599 9.7764 4.51305 9.6708L5.6 9.0885L6.68697 9.6708C6.88402 9.7764 7.116 9.7764 7.31305 9.6708L8.40001 9.0885L9.48697 9.6708C9.68402 9.7764 9.916 9.7764 10.113 9.6708L11.2 9.0885ZM3.66931 12.5543L3.82275 13.0063C3.92334 13.3027 4.18625 13.5 4.48061 13.5H9.51938C9.8138 13.5 10.0766 13.3027 10.1772 13.0063L10.3307 12.5543L10.113 12.6708C9.916 12.7764 9.68402 12.7764 9.48697 12.6708L8.40001 12.0885L7.31305 12.6708C7.116 12.7764 6.88402 12.7764 6.68697 12.6708L5.6 12.0885L4.51305 12.6708C4.31599 12.7764 4.08402 12.7764 3.88696 12.6708L3.66931 12.5543Z" fill="#FFFBEB"/>
<g filter="url(#filter0_d_43_257)">
<path d="M13.1 15H13.9V13.4H15.5V12.6H13.9V11H13.1V12.6H11.5V13.4H13.1V15ZM13.5 17C12.9467 17 12.4267 16.895 11.94 16.685C11.4533 16.475 11.03 16.19 10.67 15.83C10.31 15.47 10.025 15.0467 9.815 14.56C9.605 14.0733 9.5 13.5533 9.5 13C9.5 12.4467 9.605 11.9267 9.815 11.44C10.025 10.9533 10.31 10.53 10.67 10.17C11.03 9.81 11.4533 9.525 11.94 9.315C12.4267 9.105 12.9467 9 13.5 9C14.0533 9 14.5733 9.105 15.06 9.315C15.5467 9.525 15.97 9.81 16.33 10.17C16.69 10.53 16.975 10.9533 17.185 11.44C17.395 11.9267 17.5 12.4467 17.5 13C17.5 13.5533 17.395 14.0733 17.185 14.56C16.975 15.0467 16.69 15.47 16.33 15.83C15.97 16.19 15.5467 16.475 15.06 16.685C14.5733 16.895 14.0533 17 13.5 17Z" fill="#FFFBEB"/>
</g>
<defs>
<filter id="filter0_d_43_257" x="6.5" y="7" width="12" height="12" filterUnits="userSpaceOnUse" color-interpolation-filters="sRGB">
<feFlood flood-opacity="0" result="BackgroundImageFix"/>
<feColorMatrix in="SourceAlpha" type="matrix" values="0 0 0 0 0 0 0 0 0 0 0 0 0 0 0 0 0 0 127 0" result="hardAlpha"/>
<feOffset dx="-1"/>
<feGaussianBlur stdDeviation="1"/>
<feComposite in2="hardAlpha" operator="out"/>
<feColorMatrix type="matrix" values="0 0 0 0 0 0 0 0 0 0 0 0 0 0 0 0 0 0 0.25 0"/>
<feBlend mode="normal" in2="BackgroundImageFix" result="effect1_dropShadow_43_257"/>
<feBlend mode="normal" in="SourceGraphic" in2="effect1_dropShadow_43_257" result="shape"/>
</filter>
</defs>
</svg>
