<svg width="93" height="120" viewBox="0 0 93 120" fill="none" xmlns="http://www.w3.org/2000/svg">
<path d="M80.789 47.853L74.641 46.623C74.427 46.634 74.216 46.656 74 46.656C70.211 46.656 67.06 49.436 65.316 51.384L67.365 52.309C67.408 52.329 67.45 52.35 67.491 52.371C69.856 53.648 71.928 55.495 73.676 57.655H92.763L92.233 56.594C89.955 52.038 85.784 48.852 80.789 47.853ZM77 53.656H75C73.896 53.656 73 52.76 73 51.656C73 50.552 73.896 49.656 75 49.656H77C78.104 49.656 79 50.552 79 51.656C79 52.76 78.104 53.656 77 53.656Z" fill="#E5EDE8"/>
<path d="M65.651 55.925L61.343 53.979C60.813 53.739 60.413 53.281 60.248 52.723C60.083 52.164 60.169 51.562 60.485 51.073C60.634 50.841 63.097 47.101 67.133 44.685C63.98 42.718 61.721 39.44 61.147 35.589C55.669 32.769 49.575 31.323 43 31.323C23.52 31.323 3.371 44.189 -7.956 56.939C-9.274 58.423 -10 60.323 -10 62.287V79.229C-10 86.708 -7.087 93.739 -1.799 99.028L10.628 111.455C15.917 116.743 22.948 119.656 30.427 119.656H59.86C60.964 119.656 61.994 119.215 62.758 118.413C63.52 117.615 63.91 116.57 63.858 115.472C63.242 102.51 60.762 95.835 59.741 93.592C49.852 92.939 42 84.708 42 74.656C42 69.947 43.76 64.437 46.708 59.917C47.311 58.992 48.55 58.731 49.476 59.334C50.401 59.938 50.662 61.177 50.059 62.102C47.518 65.998 46 70.691 46 74.656C46 82.927 52.729 89.656 61 89.656C69.271 89.656 76 82.927 76 74.656C76 67.555 71.267 58.998 65.651 55.925ZM22.397 43.673C22.616 42.59 23.671 41.89 24.754 42.109C25.837 42.328 26.537 43.383 26.318 44.466C26.107 45.508 26 46.582 26 47.656C26 53.887 29.659 59.596 35.323 62.201C36.326 62.662 36.766 63.85 36.304 64.854C35.967 65.586 35.243 66.019 34.486 66.019C34.207 66.019 33.923 65.96 33.652 65.835C26.573 62.58 22 55.444 22 47.656C22 46.316 22.134 44.976 22.397 43.673ZM31.895 90.445L21.895 95.445C21.612 95.586 21.306 95.656 21 95.656C20.634 95.656 20.27 95.556 19.949 95.357C19.359 94.993 19 94.349 19 93.656C19 83.289 22.052 78.92 22.4 78.456C23.064 77.573 24.317 77.394 25.2 78.056C26.083 78.719 26.262 79.973 25.6 80.856C25.59 80.871 23.637 83.694 23.122 90.358L30.105 86.866C31.092 86.372 32.293 86.772 32.789 87.761C33.283 88.75 32.882 89.951 31.895 90.445ZM42.995 102.684C43.8 101.929 45.065 101.968 45.822 102.774C46.578 103.579 46.538 104.845 45.732 105.601L37.58 113.252C37.205 113.604 36.713 113.794 36.211 113.794C36.037 113.794 35.862 113.772 35.69 113.725C35.021 113.544 34.493 113.03 34.294 112.366C31.329 102.432 33.004 97.373 33.205 96.829C33.587 95.792 34.736 95.263 35.774 95.644C36.81 96.026 37.34 97.176 36.958 98.213C36.953 98.23 35.888 101.494 37.302 108.027L42.995 102.684ZM47 46.656C44.794 46.656 43 44.862 43 42.656C43 40.45 44.794 38.656 47 38.656C49.206 38.656 51 40.45 51 42.656C51 44.862 49.206 46.656 47 46.656Z" fill="#E5EDE8"/>
<path d="M63.983 32.546C63.986 32.548 63.988 32.55 63.991 32.552C64.09 32.607 64.182 32.673 64.27 32.744C64.287 32.758 64.307 32.769 64.324 32.784C64.392 32.843 64.452 32.911 64.512 32.979C64.54 33.01 64.572 33.039 64.598 33.072C64.638 33.124 64.669 33.182 64.704 33.237C64.739 33.292 64.777 33.344 64.806 33.402C64.827 33.444 64.84 33.49 64.859 33.534C64.891 33.611 64.924 33.688 64.947 33.768C64.957 33.803 64.96 33.84 64.968 33.876C64.989 33.97 65.007 34.065 65.013 34.162C65.013 34.169 65.016 34.176 65.016 34.183C65.289 38.934 69.235 42.656 74 42.656C78.962 42.656 83 38.618 83 33.656C83 30.719 81.54 28.018 79.224 26.353C78.881 27.653 78.427 29.001 77.851 30.412C77.535 31.187 76.788 31.656 76 31.656C75.748 31.656 75.492 31.608 75.245 31.507C74.223 31.09 73.732 29.922 74.149 28.9C75.412 25.807 76.017 23.115 76.001 20.67C75.968 15.88 73.488 13.163 71.562 11.773C70.169 16.386 65.795 18.277 63.284 18.636C62.707 18.716 62.129 18.546 61.691 18.167C61.251 17.787 61 17.236 61 16.656C61 10.742 59.166 7.971 57.659 6.692C56.417 12.031 51.893 15.656 46 15.656C39.107 15.656 33.5 10.049 33.5 3.156C33.5 2.087 33.639 1.027 33.909 0C27.672 1.411 23 6.998 23 13.656C23 21.376 29.28 27.656 37 27.656C37.03 27.656 37.058 27.664 37.088 27.665C39.044 27.444 41.016 27.323 43 27.323C50.619 27.323 57.679 29.08 63.983 32.546Z" fill="#E5EDE8"/>
</svg>
