<svg width="101" height="92" viewBox="0 0 101 92" fill="none" xmlns="http://www.w3.org/2000/svg">
<path d="M45.772 68.5328L45.7541 68.5363L45.6388 68.5971L45.6063 68.604L45.5836 68.5971L45.4682 68.5363C45.4509 68.5305 45.4379 68.5334 45.4292 68.5449L45.4227 68.5623L45.3951 69.3057L45.4032 69.3405L45.4195 69.363L45.5884 69.4916L45.6128 69.4985L45.6323 69.4916L45.8012 69.363L45.8207 69.3353L45.8272 69.3057L45.7996 68.5641C45.7953 68.5455 45.7861 68.5351 45.772 68.5328ZM46.2025 68.3365L46.1814 68.34L45.8808 68.5015L45.8646 68.5189L45.8597 68.538L45.889 69.2849L45.8971 69.3057L45.9101 69.3179L46.2366 69.4794C46.2572 69.4852 46.2729 69.4806 46.2837 69.4655L46.2902 69.4412L46.235 68.3747C46.2296 68.3539 46.2187 68.3411 46.2025 68.3365ZM45.041 68.34C45.0338 68.3354 45.0253 68.3338 45.0171 68.3358C45.0089 68.3377 45.0018 68.343 44.9971 68.3504L44.9874 68.3747L44.9321 69.4412C44.9332 69.462 44.9424 69.4759 44.9597 69.4829L44.9841 69.4794L45.3106 69.3179L45.3269 69.304L45.3334 69.2849L45.361 68.538L45.3561 68.5172L45.3399 68.4998L45.041 68.34Z" fill="black" fill-opacity="0.43"/>
<path d="M14.772 34.3179L14.7541 34.3214L14.6388 34.3822L14.6063 34.3892L14.5836 34.3822L14.4682 34.3214C14.4509 34.3156 14.4379 34.3185 14.4292 34.3301L14.4227 34.3475L14.3951 35.0909L14.4032 35.1256L14.4195 35.1482L14.5884 35.2767L14.6128 35.2837L14.6323 35.2767L14.8012 35.1482L14.8207 35.1204L14.8272 35.0909L14.7996 34.3492C14.7953 34.3307 14.7861 34.3203 14.772 34.3179ZM15.2025 34.1217L15.1814 34.1251L14.8808 34.2867L14.8646 34.3041L14.8597 34.3232L14.889 35.07L14.8971 35.0909L14.9101 35.103L15.2366 35.2646C15.2572 35.2704 15.2729 35.2657 15.2837 35.2507L15.2902 35.2264L15.235 34.1599C15.2296 34.139 15.2187 34.1263 15.2025 34.1217ZM14.041 34.1251C14.0338 34.1205 14.0253 34.119 14.0171 34.1209C14.0089 34.1229 14.0018 34.1281 13.9971 34.1356L13.9874 34.1599L13.9321 35.2264C13.9332 35.2472 13.9424 35.2611 13.9597 35.268L13.9841 35.2646L14.3106 35.103L14.3269 35.0891L14.3334 35.07L14.361 34.3232L14.3561 34.3023L14.3399 34.2849L14.041 34.1251Z" fill="black" fill-opacity="0.43"/>
<path d="M3.249 22.5801C4.11069 22.5801 4.93709 22.9461 5.54639 23.5976C6.1557 24.2491 6.49801 25.1326 6.49801 26.054C6.49801 26.9753 6.1557 27.8589 5.54639 28.5104C4.93709 29.1618 4.11069 29.5278 3.249 29.5278C2.38731 29.5278 1.56092 29.1618 0.951611 28.5104C0.342305 27.8589 0 26.9753 0 26.054C0 25.1326 0.342305 24.2491 0.951611 23.5976C1.56092 22.9461 2.38731 22.5801 3.249 22.5801ZM13.8083 22.5801C14.67 22.5801 15.4963 22.9461 16.1057 23.5976C16.715 24.2491 17.0573 25.1326 17.0573 26.054C17.0573 26.9753 16.715 27.8589 16.1057 28.5104C15.4963 29.1618 14.67 29.5278 13.8083 29.5278C12.9466 29.5278 12.1202 29.1618 11.5109 28.5104C10.9016 27.8589 10.5593 26.9753 10.5593 26.054C10.5593 25.1326 10.9016 24.2491 11.5109 23.5976C12.1202 22.9461 12.9466 22.5801 13.8083 22.5801ZM24.3675 22.5801C25.2292 22.5801 26.0556 22.9461 26.6649 23.5976C27.2742 24.2491 27.6165 25.1326 27.6165 26.054C27.6165 26.9753 27.2742 27.8589 26.6649 28.5104C26.0556 29.1618 25.2292 29.5278 24.3675 29.5278C23.5058 29.5278 22.6794 29.1618 22.0701 28.5104C21.4608 27.8589 21.1185 26.9753 21.1185 26.054C21.1185 25.1326 21.4608 24.2491 22.0701 23.5976C22.6794 22.9461 23.5058 22.5801 24.3675 22.5801ZM3.249 11.2901C4.11069 11.2901 4.93709 11.6561 5.54639 12.3075C6.1557 12.959 6.49801 13.8426 6.49801 14.7639C6.49801 15.6852 6.1557 16.5688 5.54639 17.2203C4.93709 17.8718 4.11069 18.2378 3.249 18.2378C2.38731 18.2378 1.56092 17.8718 0.951611 17.2203C0.342305 16.5688 0 15.6852 0 14.7639C0 13.8426 0.342305 12.959 0.951611 12.3075C1.56092 11.6561 2.38731 11.2901 3.249 11.2901ZM13.8083 11.2901C14.67 11.2901 15.4963 11.6561 16.1057 12.3075C16.715 12.959 17.0573 13.8426 17.0573 14.7639C17.0573 15.6852 16.715 16.5688 16.1057 17.2203C15.4963 17.8718 14.67 18.2378 13.8083 18.2378C12.9466 18.2378 12.1202 17.8718 11.5109 17.2203C10.9016 16.5688 10.5593 15.6852 10.5593 14.7639C10.5593 13.8426 10.9016 12.959 11.5109 12.3075C12.1202 11.6561 12.9466 11.2901 13.8083 11.2901ZM24.3675 11.2901C25.2292 11.2901 26.0556 11.6561 26.6649 12.3075C27.2742 12.959 27.6165 13.8426 27.6165 14.7639C27.6165 15.6852 27.2742 16.5688 26.6649 17.2203C26.0556 17.8718 25.2292 18.2378 24.3675 18.2378C23.5058 18.2378 22.6794 17.8718 22.0701 17.2203C21.4608 16.5688 21.1185 15.6852 21.1185 14.7639C21.1185 13.8426 21.4608 12.959 22.0701 12.3075C22.6794 11.6561 23.5058 11.2901 24.3675 11.2901ZM3.249 0C4.11069 0 4.93709 0.365995 5.54639 1.01747C6.1557 1.66895 6.49801 2.55254 6.49801 3.47386C6.49801 4.39519 6.1557 5.27878 5.54639 5.93026C4.93709 6.58173 4.11069 6.94773 3.249 6.94773C2.38731 6.94773 1.56092 6.58173 0.951611 5.93026C0.342305 5.27878 0 4.39519 0 3.47386C0 2.55254 0.342305 1.66895 0.951611 1.01747C1.56092 0.365995 2.38731 0 3.249 0ZM13.8083 0C14.67 0 15.4963 0.365995 16.1057 1.01747C16.715 1.66895 17.0573 2.55254 17.0573 3.47386C17.0573 4.39519 16.715 5.27878 16.1057 5.93026C15.4963 6.58173 14.67 6.94773 13.8083 6.94773C12.9466 6.94773 12.1202 6.58173 11.5109 5.93026C10.9016 5.27878 10.5593 4.39519 10.5593 3.47386C10.5593 2.55254 10.9016 1.66895 11.5109 1.01747C12.1202 0.365995 12.9466 0 13.8083 0ZM24.3675 0C25.2292 0 26.0556 0.365995 26.6649 1.01747C27.2742 1.66895 27.6165 2.55254 27.6165 3.47386C27.6165 4.39519 27.2742 5.27878 26.6649 5.93026C26.0556 6.58173 25.2292 6.94773 24.3675 6.94773C23.5058 6.94773 22.6794 6.58173 22.0701 5.93026C21.4608 5.27878 21.1185 4.39519 21.1185 3.47386C21.1185 2.55254 21.4608 1.66895 22.0701 1.01747C22.6794 0.365995 23.5058 0 24.3675 0Z" fill="black" fill-opacity="0.43"/>
<path d="M3.249 56.795C4.11069 56.795 4.93709 57.161 5.54639 57.8124C6.1557 58.4639 6.49801 59.3475 6.49801 60.2688C6.49801 61.1901 6.1557 62.0737 5.54639 62.7252C4.93709 63.3767 4.11069 63.7427 3.249 63.7427C2.38731 63.7427 1.56092 63.3767 0.951611 62.7252C0.342305 62.0737 0 61.1901 0 60.2688C0 59.3475 0.342305 58.4639 0.951611 57.8124C1.56092 57.161 2.38731 56.795 3.249 56.795ZM13.8083 56.795C14.67 56.795 15.4963 57.161 16.1057 57.8124C16.715 58.4639 17.0573 59.3475 17.0573 60.2688C17.0573 61.1901 16.715 62.0737 16.1057 62.7252C15.4963 63.3767 14.67 63.7427 13.8083 63.7427C12.9466 63.7427 12.1202 63.3767 11.5109 62.7252C10.9016 62.0737 10.5593 61.1901 10.5593 60.2688C10.5593 59.3475 10.9016 58.4639 11.5109 57.8124C12.1202 57.161 12.9466 56.795 13.8083 56.795ZM24.3675 56.795C25.2292 56.795 26.0556 57.161 26.6649 57.8124C27.2742 58.4639 27.6165 59.3475 27.6165 60.2688C27.6165 61.1901 27.2742 62.0737 26.6649 62.7252C26.0556 63.3767 25.2292 63.7427 24.3675 63.7427C23.5058 63.7427 22.6794 63.3767 22.0701 62.7252C21.4608 62.0737 21.1185 61.1901 21.1185 60.2688C21.1185 59.3475 21.4608 58.4639 22.0701 57.8124C22.6794 57.161 23.5058 56.795 24.3675 56.795ZM3.249 45.5049C4.11069 45.5049 4.93709 45.8709 5.54639 46.5224C6.1557 47.1738 6.49801 48.0574 6.49801 48.9788C6.49801 49.9001 6.1557 50.7837 5.54639 51.4352C4.93709 52.0866 4.11069 52.4526 3.249 52.4526C2.38731 52.4526 1.56092 52.0866 0.951611 51.4352C0.342305 50.7837 0 49.9001 0 48.9788C0 48.0574 0.342305 47.1738 0.951611 46.5224C1.56092 45.8709 2.38731 45.5049 3.249 45.5049ZM13.8083 45.5049C14.67 45.5049 15.4963 45.8709 16.1057 46.5224C16.715 47.1738 17.0573 48.0574 17.0573 48.9788C17.0573 49.9001 16.715 50.7837 16.1057 51.4352C15.4963 52.0866 14.67 52.4526 13.8083 52.4526C12.9466 52.4526 12.1202 52.0866 11.5109 51.4352C10.9016 50.7837 10.5593 49.9001 10.5593 48.9788C10.5593 48.0574 10.9016 47.1738 11.5109 46.5224C12.1202 45.8709 12.9466 45.5049 13.8083 45.5049ZM24.3675 45.5049C25.2292 45.5049 26.0556 45.8709 26.6649 46.5224C27.2742 47.1738 27.6165 48.0574 27.6165 48.9788C27.6165 49.9001 27.2742 50.7837 26.6649 51.4352C26.0556 52.0866 25.2292 52.4526 24.3675 52.4526C23.5058 52.4526 22.6794 52.0866 22.0701 51.4352C21.4608 50.7837 21.1185 49.9001 21.1185 48.9788C21.1185 48.0574 21.4608 47.1738 22.0701 46.5224C22.6794 45.8709 23.5058 45.5049 24.3675 45.5049ZM3.249 34.2148C4.11069 34.2148 4.93709 34.5808 5.54639 35.2323C6.1557 35.8838 6.49801 36.7674 6.49801 37.6887C6.49801 38.61 6.1557 39.4936 5.54639 40.1451C4.93709 40.7966 4.11069 41.1626 3.249 41.1626C2.38731 41.1626 1.56092 40.7966 0.951611 40.1451C0.342305 39.4936 0 38.61 0 37.6887C0 36.7674 0.342305 35.8838 0.951611 35.2323C1.56092 34.5808 2.38731 34.2148 3.249 34.2148ZM13.8083 34.2148C14.67 34.2148 15.4963 34.5808 16.1057 35.2323C16.715 35.8838 17.0573 36.7674 17.0573 37.6887C17.0573 38.61 16.715 39.4936 16.1057 40.1451C15.4963 40.7966 14.67 41.1626 13.8083 41.1626C12.9466 41.1626 12.1202 40.7966 11.5109 40.1451C10.9016 39.4936 10.5593 38.61 10.5593 37.6887C10.5593 36.7674 10.9016 35.8838 11.5109 35.2323C12.1202 34.5808 12.9466 34.2148 13.8083 34.2148ZM24.3675 34.2148C25.2292 34.2148 26.0556 34.5808 26.6649 35.2323C27.2742 35.8838 27.6165 36.7674 27.6165 37.6887C27.6165 38.61 27.2742 39.4936 26.6649 40.1451C26.0556 40.7966 25.2292 41.1626 24.3675 41.1626C23.5058 41.1626 22.6794 40.7966 22.0701 40.1451C21.4608 39.4936 21.1185 38.61 21.1185 37.6887C21.1185 36.7674 21.4608 35.8838 22.0701 35.2323C22.6794 34.5808 23.5058 34.2148 24.3675 34.2148Z" fill="black" fill-opacity="0.43"/>
<path d="M34.249 22.5801C35.1107 22.5801 35.9371 22.9461 36.5464 23.5976C37.1557 24.2491 37.498 25.1326 37.498 26.054C37.498 26.9753 37.1557 27.8589 36.5464 28.5104C35.9371 29.1618 35.1107 29.5278 34.249 29.5278C33.3873 29.5278 32.5609 29.1618 31.9516 28.5104C31.3423 27.8589 31 26.9753 31 26.054C31 25.1326 31.3423 24.2491 31.9516 23.5976C32.5609 22.9461 33.3873 22.5801 34.249 22.5801ZM44.8083 22.5801C45.67 22.5801 46.4963 22.9461 47.1057 23.5976C47.715 24.2491 48.0573 25.1326 48.0573 26.054C48.0573 26.9753 47.715 27.8589 47.1057 28.5104C46.4963 29.1618 45.67 29.5278 44.8083 29.5278C43.9466 29.5278 43.1202 29.1618 42.5109 28.5104C41.9016 27.8589 41.5593 26.9753 41.5593 26.054C41.5593 25.1326 41.9016 24.2491 42.5109 23.5976C43.1202 22.9461 43.9466 22.5801 44.8083 22.5801ZM55.3675 22.5801C56.2292 22.5801 57.0556 22.9461 57.6649 23.5976C58.2742 24.2491 58.6165 25.1326 58.6165 26.054C58.6165 26.9753 58.2742 27.8589 57.6649 28.5104C57.0556 29.1618 56.2292 29.5278 55.3675 29.5278C54.5058 29.5278 53.6794 29.1618 53.0701 28.5104C52.4608 27.8589 52.1185 26.9753 52.1185 26.054C52.1185 25.1326 52.4608 24.2491 53.0701 23.5976C53.6794 22.9461 54.5058 22.5801 55.3675 22.5801ZM34.249 11.2901C35.1107 11.2901 35.9371 11.6561 36.5464 12.3075C37.1557 12.959 37.498 13.8426 37.498 14.7639C37.498 15.6852 37.1557 16.5688 36.5464 17.2203C35.9371 17.8718 35.1107 18.2378 34.249 18.2378C33.3873 18.2378 32.5609 17.8718 31.9516 17.2203C31.3423 16.5688 31 15.6852 31 14.7639C31 13.8426 31.3423 12.959 31.9516 12.3075C32.5609 11.6561 33.3873 11.2901 34.249 11.2901ZM44.8083 11.2901C45.67 11.2901 46.4963 11.6561 47.1057 12.3075C47.715 12.959 48.0573 13.8426 48.0573 14.7639C48.0573 15.6852 47.715 16.5688 47.1057 17.2203C46.4963 17.8718 45.67 18.2378 44.8083 18.2378C43.9466 18.2378 43.1202 17.8718 42.5109 17.2203C41.9016 16.5688 41.5593 15.6852 41.5593 14.7639C41.5593 13.8426 41.9016 12.959 42.5109 12.3075C43.1202 11.6561 43.9466 11.2901 44.8083 11.2901ZM55.3675 11.2901C56.2292 11.2901 57.0556 11.6561 57.6649 12.3075C58.2742 12.959 58.6165 13.8426 58.6165 14.7639C58.6165 15.6852 58.2742 16.5688 57.6649 17.2203C57.0556 17.8718 56.2292 18.2378 55.3675 18.2378C54.5058 18.2378 53.6794 17.8718 53.0701 17.2203C52.4608 16.5688 52.1185 15.6852 52.1185 14.7639C52.1185 13.8426 52.4608 12.959 53.0701 12.3075C53.6794 11.6561 54.5058 11.2901 55.3675 11.2901ZM34.249 0C35.1107 0 35.9371 0.365995 36.5464 1.01747C37.1557 1.66895 37.498 2.55254 37.498 3.47386C37.498 4.39519 37.1557 5.27878 36.5464 5.93026C35.9371 6.58173 35.1107 6.94773 34.249 6.94773C33.3873 6.94773 32.5609 6.58173 31.9516 5.93026C31.3423 5.27878 31 4.39519 31 3.47386C31 2.55254 31.3423 1.66895 31.9516 1.01747C32.5609 0.365995 33.3873 0 34.249 0ZM44.8083 0C45.67 0 46.4963 0.365995 47.1057 1.01747C47.715 1.66895 48.0573 2.55254 48.0573 3.47386C48.0573 4.39519 47.715 5.27878 47.1057 5.93026C46.4963 6.58173 45.67 6.94773 44.8083 6.94773C43.9466 6.94773 43.1202 6.58173 42.5109 5.93026C41.9016 5.27878 41.5593 4.39519 41.5593 3.47386C41.5593 2.55254 41.9016 1.66895 42.5109 1.01747C43.1202 0.365995 43.9466 0 44.8083 0ZM55.3675 0C56.2292 0 57.0556 0.365995 57.6649 1.01747C58.2742 1.66895 58.6165 2.55254 58.6165 3.47386C58.6165 4.39519 58.2742 5.27878 57.6649 5.93026C57.0556 6.58173 56.2292 6.94773 55.3675 6.94773C54.5058 6.94773 53.6794 6.58173 53.0701 5.93026C52.4608 5.27878 52.1185 4.39519 52.1185 3.47386C52.1185 2.55254 52.4608 1.66895 53.0701 1.01747C53.6794 0.365995 54.5058 0 55.3675 0Z" fill="black" fill-opacity="0.43"/>
<path d="M34.249 56.795C35.1107 56.795 35.9371 57.161 36.5464 57.8124C37.1557 58.4639 37.498 59.3475 37.498 60.2688C37.498 61.1901 37.1557 62.0737 36.5464 62.7252C35.9371 63.3767 35.1107 63.7427 34.249 63.7427C33.3873 63.7427 32.5609 63.3767 31.9516 62.7252C31.3423 62.0737 31 61.1901 31 60.2688C31 59.3475 31.3423 58.4639 31.9516 57.8124C32.5609 57.161 33.3873 56.795 34.249 56.795ZM44.8083 56.795C45.67 56.795 46.4963 57.161 47.1057 57.8124C47.715 58.4639 48.0573 59.3475 48.0573 60.2688C48.0573 61.1901 47.715 62.0737 47.1057 62.7252C46.4963 63.3767 45.67 63.7427 44.8083 63.7427C43.9466 63.7427 43.1202 63.3767 42.5109 62.7252C41.9016 62.0737 41.5593 61.1901 41.5593 60.2688C41.5593 59.3475 41.9016 58.4639 42.5109 57.8124C43.1202 57.161 43.9466 56.795 44.8083 56.795ZM55.3675 56.795C56.2292 56.795 57.0556 57.161 57.6649 57.8124C58.2742 58.4639 58.6165 59.3475 58.6165 60.2688C58.6165 61.1901 58.2742 62.0737 57.6649 62.7252C57.0556 63.3767 56.2292 63.7427 55.3675 63.7427C54.5058 63.7427 53.6794 63.3767 53.0701 62.7252C52.4608 62.0737 52.1185 61.1901 52.1185 60.2688C52.1185 59.3475 52.4608 58.4639 53.0701 57.8124C53.6794 57.161 54.5058 56.795 55.3675 56.795ZM34.249 45.5049C35.1107 45.5049 35.9371 45.8709 36.5464 46.5224C37.1557 47.1738 37.498 48.0574 37.498 48.9788C37.498 49.9001 37.1557 50.7837 36.5464 51.4352C35.9371 52.0866 35.1107 52.4526 34.249 52.4526C33.3873 52.4526 32.5609 52.0866 31.9516 51.4352C31.3423 50.7837 31 49.9001 31 48.9788C31 48.0574 31.3423 47.1738 31.9516 46.5224C32.5609 45.8709 33.3873 45.5049 34.249 45.5049ZM44.8083 45.5049C45.67 45.5049 46.4963 45.8709 47.1057 46.5224C47.715 47.1738 48.0573 48.0574 48.0573 48.9788C48.0573 49.9001 47.715 50.7837 47.1057 51.4352C46.4963 52.0866 45.67 52.4526 44.8083 52.4526C43.9466 52.4526 43.1202 52.0866 42.5109 51.4352C41.9016 50.7837 41.5593 49.9001 41.5593 48.9788C41.5593 48.0574 41.9016 47.1738 42.5109 46.5224C43.1202 45.8709 43.9466 45.5049 44.8083 45.5049ZM55.3675 45.5049C56.2292 45.5049 57.0556 45.8709 57.6649 46.5224C58.2742 47.1738 58.6165 48.0574 58.6165 48.9788C58.6165 49.9001 58.2742 50.7837 57.6649 51.4352C57.0556 52.0866 56.2292 52.4526 55.3675 52.4526C54.5058 52.4526 53.6794 52.0866 53.0701 51.4352C52.4608 50.7837 52.1185 49.9001 52.1185 48.9788C52.1185 48.0574 52.4608 47.1738 53.0701 46.5224C53.6794 45.8709 54.5058 45.5049 55.3675 45.5049ZM34.249 34.2148C35.1107 34.2148 35.9371 34.5808 36.5464 35.2323C37.1557 35.8838 37.498 36.7674 37.498 37.6887C37.498 38.61 37.1557 39.4936 36.5464 40.1451C35.9371 40.7966 35.1107 41.1626 34.249 41.1626C33.3873 41.1626 32.5609 40.7966 31.9516 40.1451C31.3423 39.4936 31 38.61 31 37.6887C31 36.7674 31.3423 35.8838 31.9516 35.2323C32.5609 34.5808 33.3873 34.2148 34.249 34.2148ZM44.8083 34.2148C45.67 34.2148 46.4963 34.5808 47.1057 35.2323C47.715 35.8838 48.0573 36.7674 48.0573 37.6887C48.0573 38.61 47.715 39.4936 47.1057 40.1451C46.4963 40.7966 45.67 41.1626 44.8083 41.1626C43.9466 41.1626 43.1202 40.7966 42.5109 40.1451C41.9016 39.4936 41.5593 38.61 41.5593 37.6887C41.5593 36.7674 41.9016 35.8838 42.5109 35.2323C43.1202 34.5808 43.9466 34.2148 44.8083 34.2148ZM55.3675 34.2148C56.2292 34.2148 57.0556 34.5808 57.6649 35.2323C58.2742 35.8838 58.6165 36.7674 58.6165 37.6887C58.6165 38.61 58.2742 39.4936 57.6649 40.1451C57.0556 40.7966 56.2292 41.1626 55.3675 41.1626C54.5058 41.1626 53.6794 40.7966 53.0701 40.1451C52.4608 39.4936 52.1185 38.61 52.1185 37.6887C52.1185 36.7674 52.4608 35.8838 53.0701 35.2323C53.6794 34.5808 54.5058 34.2148 55.3675 34.2148Z" fill="black" fill-opacity="0.43"/>
<path d="M56.772 56.7716L56.7541 56.775L56.6388 56.8358L56.6063 56.8428L56.5836 56.8358L56.4682 56.775C56.4509 56.7692 56.4379 56.7721 56.4292 56.7837L56.4227 56.8011L56.3951 57.5445L56.4032 57.5792L56.4195 57.6018L56.5884 57.7303L56.6128 57.7373L56.6323 57.7303L56.8012 57.6018L56.8207 57.574L56.8272 57.5445L56.7996 56.8028C56.7953 56.7843 56.7861 56.7739 56.772 56.7716ZM57.2025 56.5753L57.1814 56.5788L56.8808 56.7403L56.8646 56.7577L56.8597 56.7768L56.889 57.5237L56.8971 57.5445L56.9101 57.5567L57.2366 57.7182C57.2572 57.724 57.2729 57.7193 57.2837 57.7043L57.2902 57.68L57.235 56.6135C57.2296 56.5927 57.2187 56.5799 57.2025 56.5753ZM56.041 56.5788C56.0338 56.5741 56.0253 56.5726 56.0171 56.5746C56.0089 56.5765 56.0018 56.5817 55.9971 56.5892L55.9874 56.6135L55.9321 57.68C55.9332 57.7008 55.9424 57.7147 55.9597 57.7217L55.9841 57.7182L56.3106 57.5567L56.3269 57.5428L56.3334 57.5237L56.361 56.7768L56.3561 56.7559L56.3399 56.7386L56.041 56.5788Z" fill="black"/>
<path d="M45.249 45.0337C46.1107 45.0337 46.9371 45.3997 47.5464 46.0512C48.1557 46.7027 48.498 47.5863 48.498 48.5076C48.498 49.4289 48.1557 50.3125 47.5464 50.964C46.9371 51.6155 46.1107 51.9815 45.249 51.9815C44.3873 51.9815 43.5609 51.6155 42.9516 50.964C42.3423 50.3125 42 49.4289 42 48.5076C42 47.5863 42.3423 46.7027 42.9516 46.0512C43.5609 45.3997 44.3873 45.0337 45.249 45.0337ZM55.8083 45.0337C56.67 45.0337 57.4963 45.3997 58.1057 46.0512C58.715 46.7027 59.0573 47.5863 59.0573 48.5076C59.0573 49.4289 58.715 50.3125 58.1057 50.964C57.4963 51.6155 56.67 51.9815 55.8083 51.9815C54.9466 51.9815 54.1202 51.6155 53.5109 50.964C52.9016 50.3125 52.5593 49.4289 52.5593 48.5076C52.5593 47.5863 52.9016 46.7027 53.5109 46.0512C54.1202 45.3997 54.9466 45.0337 55.8083 45.0337ZM66.3675 45.0337C67.2292 45.0337 68.0556 45.3997 68.6649 46.0512C69.2742 46.7027 69.6165 47.5863 69.6165 48.5076C69.6165 49.4289 69.2742 50.3125 68.6649 50.964C68.0556 51.6155 67.2292 51.9815 66.3675 51.9815C65.5058 51.9815 64.6794 51.6155 64.0701 50.964C63.4608 50.3125 63.1185 49.4289 63.1185 48.5076C63.1185 47.5863 63.4608 46.7027 64.0701 46.0512C64.6794 45.3997 65.5058 45.0337 66.3675 45.0337ZM45.249 33.7437C46.1107 33.7437 46.9371 34.1097 47.5464 34.7611C48.1557 35.4126 48.498 36.2962 48.498 37.2175C48.498 38.1389 48.1557 39.0224 47.5464 39.6739C46.9371 40.3254 46.1107 40.6914 45.249 40.6914C44.3873 40.6914 43.5609 40.3254 42.9516 39.6739C42.3423 39.0224 42 38.1389 42 37.2175C42 36.2962 42.3423 35.4126 42.9516 34.7611C43.5609 34.1097 44.3873 33.7437 45.249 33.7437ZM55.8083 33.7437C56.67 33.7437 57.4963 34.1097 58.1057 34.7611C58.715 35.4126 59.0573 36.2962 59.0573 37.2175C59.0573 38.1389 58.715 39.0224 58.1057 39.6739C57.4963 40.3254 56.67 40.6914 55.8083 40.6914C54.9466 40.6914 54.1202 40.3254 53.5109 39.6739C52.9016 39.0224 52.5593 38.1389 52.5593 37.2175C52.5593 36.2962 52.9016 35.4126 53.5109 34.7611C54.1202 34.1097 54.9466 33.7437 55.8083 33.7437ZM66.3675 33.7437C67.2292 33.7437 68.0556 34.1097 68.6649 34.7611C69.2742 35.4126 69.6165 36.2962 69.6165 37.2175C69.6165 38.1389 69.2742 39.0224 68.6649 39.6739C68.0556 40.3254 67.2292 40.6914 66.3675 40.6914C65.5058 40.6914 64.6794 40.3254 64.0701 39.6739C63.4608 39.0224 63.1185 38.1389 63.1185 37.2175C63.1185 36.2962 63.4608 35.4126 64.0701 34.7611C64.6794 34.1097 65.5058 33.7437 66.3675 33.7437ZM45.249 22.4536C46.1107 22.4536 46.9371 22.8196 47.5464 23.4711C48.1557 24.1226 48.498 25.0062 48.498 25.9275C48.498 26.8488 48.1557 27.7324 47.5464 28.3839C46.9371 29.0353 46.1107 29.4013 45.249 29.4013C44.3873 29.4013 43.5609 29.0353 42.9516 28.3839C42.3423 27.7324 42 26.8488 42 25.9275C42 25.0062 42.3423 24.1226 42.9516 23.4711C43.5609 22.8196 44.3873 22.4536 45.249 22.4536ZM55.8083 22.4536C56.67 22.4536 57.4963 22.8196 58.1057 23.4711C58.715 24.1226 59.0573 25.0062 59.0573 25.9275C59.0573 26.8488 58.715 27.7324 58.1057 28.3839C57.4963 29.0353 56.67 29.4013 55.8083 29.4013C54.9466 29.4013 54.1202 29.0353 53.5109 28.3839C52.9016 27.7324 52.5593 26.8488 52.5593 25.9275C52.5593 25.0062 52.9016 24.1226 53.5109 23.4711C54.1202 22.8196 54.9466 22.4536 55.8083 22.4536ZM66.3675 22.4536C67.2292 22.4536 68.0556 22.8196 68.6649 23.4711C69.2742 24.1226 69.6165 25.0062 69.6165 25.9275C69.6165 26.8488 69.2742 27.7324 68.6649 28.3839C68.0556 29.0353 67.2292 29.4013 66.3675 29.4013C65.5058 29.4013 64.6794 29.0353 64.0701 28.3839C63.4608 27.7324 63.1185 26.8488 63.1185 25.9275C63.1185 25.0062 63.4608 24.1226 64.0701 23.4711C64.6794 22.8196 65.5058 22.4536 66.3675 22.4536Z" fill="black"/>
<path d="M56.772 90.9864L56.7541 90.9899L56.6388 91.0507L56.6063 91.0576L56.5836 91.0507L56.4682 90.9899C56.4509 90.9841 56.4379 90.987 56.4292 90.9986L56.4227 91.0159L56.3951 91.7593L56.4032 91.7941L56.4195 91.8167L56.5884 91.9452L56.6128 91.9521L56.6323 91.9452L56.8012 91.8167L56.8207 91.7889L56.8272 91.7593L56.7996 91.0177C56.7953 90.9991 56.7861 90.9887 56.772 90.9864ZM57.2025 90.7901L57.1814 90.7936L56.8808 90.9551L56.8646 90.9725L56.8597 90.9916L56.889 91.7385L56.8971 91.7593L56.9101 91.7715L57.2366 91.933C57.2572 91.9388 57.2729 91.9342 57.2837 91.9191L57.2902 91.8948L57.235 90.8283C57.2296 90.8075 57.2187 90.7948 57.2025 90.7901ZM56.041 90.7936C56.0338 90.789 56.0253 90.7875 56.0171 90.7894C56.0089 90.7913 56.0018 90.7966 55.9971 90.804L55.9874 90.8283L55.9321 91.8948C55.9332 91.9157 55.9424 91.9296 55.9597 91.9365L55.9841 91.933L56.3106 91.7715L56.3269 91.7576L56.3334 91.7385L56.361 90.9916L56.3561 90.9708L56.3399 90.9534L56.041 90.7936Z" fill="black"/>
<path d="M45.249 79.2486C46.1107 79.2486 46.9371 79.6146 47.5464 80.266C48.1557 80.9175 48.498 81.8011 48.498 82.7224C48.498 83.6438 48.1557 84.5273 47.5464 85.1788C46.9371 85.8303 46.1107 86.1963 45.249 86.1963C44.3873 86.1963 43.5609 85.8303 42.9516 85.1788C42.3423 84.5273 42 83.6438 42 82.7224C42 81.8011 42.3423 80.9175 42.9516 80.266C43.5609 79.6146 44.3873 79.2486 45.249 79.2486ZM55.8083 79.2486C56.67 79.2486 57.4963 79.6146 58.1057 80.266C58.715 80.9175 59.0573 81.8011 59.0573 82.7224C59.0573 83.6438 58.715 84.5273 58.1057 85.1788C57.4963 85.8303 56.67 86.1963 55.8083 86.1963C54.9466 86.1963 54.1202 85.8303 53.5109 85.1788C52.9016 84.5273 52.5593 83.6438 52.5593 82.7224C52.5593 81.8011 52.9016 80.9175 53.5109 80.266C54.1202 79.6146 54.9466 79.2486 55.8083 79.2486ZM66.3675 79.2486C67.2292 79.2486 68.0556 79.6146 68.6649 80.266C69.2742 80.9175 69.6165 81.8011 69.6165 82.7224C69.6165 83.6438 69.2742 84.5273 68.6649 85.1788C68.0556 85.8303 67.2292 86.1963 66.3675 86.1963C65.5058 86.1963 64.6794 85.8303 64.0701 85.1788C63.4608 84.5273 63.1185 83.6438 63.1185 82.7224C63.1185 81.8011 63.4608 80.9175 64.0701 80.266C64.6794 79.6146 65.5058 79.2486 66.3675 79.2486ZM45.249 67.9585C46.1107 67.9585 46.9371 68.3245 47.5464 68.976C48.1557 69.6275 48.498 70.5111 48.498 71.4324C48.498 72.3537 48.1557 73.2373 47.5464 73.8888C46.9371 74.5402 46.1107 74.9062 45.249 74.9062C44.3873 74.9062 43.5609 74.5402 42.9516 73.8888C42.3423 73.2373 42 72.3537 42 71.4324C42 70.5111 42.3423 69.6275 42.9516 68.976C43.5609 68.3245 44.3873 67.9585 45.249 67.9585ZM55.8083 67.9585C56.67 67.9585 57.4963 68.3245 58.1057 68.976C58.715 69.6275 59.0573 70.5111 59.0573 71.4324C59.0573 72.3537 58.715 73.2373 58.1057 73.8888C57.4963 74.5402 56.67 74.9062 55.8083 74.9062C54.9466 74.9062 54.1202 74.5402 53.5109 73.8888C52.9016 73.2373 52.5593 72.3537 52.5593 71.4324C52.5593 70.5111 52.9016 69.6275 53.5109 68.976C54.1202 68.3245 54.9466 67.9585 55.8083 67.9585ZM66.3675 67.9585C67.2292 67.9585 68.0556 68.3245 68.6649 68.976C69.2742 69.6275 69.6165 70.5111 69.6165 71.4324C69.6165 72.3537 69.2742 73.2373 68.6649 73.8888C68.0556 74.5402 67.2292 74.9062 66.3675 74.9062C65.5058 74.9062 64.6794 74.5402 64.0701 73.8888C63.4608 73.2373 63.1185 72.3537 63.1185 71.4324C63.1185 70.5111 63.4608 69.6275 64.0701 68.976C64.6794 68.3245 65.5058 67.9585 66.3675 67.9585ZM45.249 56.6685C46.1107 56.6685 46.9371 57.0345 47.5464 57.6859C48.1557 58.3374 48.498 59.221 48.498 60.1423C48.498 61.0636 48.1557 61.9472 47.5464 62.5987C46.9371 63.2502 46.1107 63.6162 45.249 63.6162C44.3873 63.6162 43.5609 63.2502 42.9516 62.5987C42.3423 61.9472 42 61.0636 42 60.1423C42 59.221 42.3423 58.3374 42.9516 57.6859C43.5609 57.0345 44.3873 56.6685 45.249 56.6685ZM55.8083 56.6685C56.67 56.6685 57.4963 57.0345 58.1057 57.6859C58.715 58.3374 59.0573 59.221 59.0573 60.1423C59.0573 61.0636 58.715 61.9472 58.1057 62.5987C57.4963 63.2502 56.67 63.6162 55.8083 63.6162C54.9466 63.6162 54.1202 63.2502 53.5109 62.5987C52.9016 61.9472 52.5593 61.0636 52.5593 60.1423C52.5593 59.221 52.9016 58.3374 53.5109 57.6859C54.1202 57.0345 54.9466 56.6685 55.8083 56.6685ZM66.3675 56.6685C67.2292 56.6685 68.0556 57.0345 68.6649 57.6859C69.2742 58.3374 69.6165 59.221 69.6165 60.1423C69.6165 61.0636 69.2742 61.9472 68.6649 62.5987C68.0556 63.2502 67.2292 63.6162 66.3675 63.6162C65.5058 63.6162 64.6794 63.2502 64.0701 62.5987C63.4608 61.9472 63.1185 61.0636 63.1185 60.1423C63.1185 59.221 63.4608 58.3374 64.0701 57.6859C64.6794 57.0345 65.5058 56.6685 66.3675 56.6685Z" fill="black"/>
<path d="M87.772 56.7716L87.7541 56.775L87.6388 56.8358L87.6063 56.8428L87.5836 56.8358L87.4682 56.775C87.4509 56.7692 87.4379 56.7721 87.4292 56.7837L87.4227 56.8011L87.3951 57.5445L87.4032 57.5792L87.4195 57.6018L87.5884 57.7303L87.6128 57.7373L87.6323 57.7303L87.8012 57.6018L87.8207 57.574L87.8272 57.5445L87.7996 56.8028C87.7953 56.7843 87.7861 56.7739 87.772 56.7716ZM88.2025 56.5753L88.1814 56.5788L87.8808 56.7403L87.8646 56.7577L87.8597 56.7768L87.889 57.5237L87.8971 57.5445L87.9101 57.5567L88.2366 57.7182C88.2572 57.724 88.2729 57.7193 88.2837 57.7043L88.2902 57.68L88.235 56.6135C88.2296 56.5927 88.2187 56.5799 88.2025 56.5753ZM87.041 56.5788C87.0338 56.5741 87.0253 56.5726 87.0171 56.5746C87.0089 56.5765 87.0018 56.5817 86.9971 56.5892L86.9874 56.6135L86.9321 57.68C86.9332 57.7008 86.9424 57.7147 86.9597 57.7217L86.9841 57.7182L87.3106 57.5567L87.3269 57.5428L87.3334 57.5237L87.361 56.7768L87.3561 56.7559L87.3399 56.7386L87.041 56.5788Z" fill="black"/>
<path d="M76.249 45.0337C77.1107 45.0337 77.9371 45.3997 78.5464 46.0512C79.1557 46.7027 79.498 47.5863 79.498 48.5076C79.498 49.4289 79.1557 50.3125 78.5464 50.964C77.9371 51.6155 77.1107 51.9815 76.249 51.9815C75.3873 51.9815 74.5609 51.6155 73.9516 50.964C73.3423 50.3125 73 49.4289 73 48.5076C73 47.5863 73.3423 46.7027 73.9516 46.0512C74.5609 45.3997 75.3873 45.0337 76.249 45.0337ZM86.8083 45.0337C87.67 45.0337 88.4963 45.3997 89.1057 46.0512C89.715 46.7027 90.0573 47.5863 90.0573 48.5076C90.0573 49.4289 89.715 50.3125 89.1057 50.964C88.4963 51.6155 87.67 51.9815 86.8083 51.9815C85.9466 51.9815 85.1202 51.6155 84.5109 50.964C83.9016 50.3125 83.5593 49.4289 83.5593 48.5076C83.5593 47.5863 83.9016 46.7027 84.5109 46.0512C85.1202 45.3997 85.9466 45.0337 86.8083 45.0337ZM97.3675 45.0337C98.2292 45.0337 99.0556 45.3997 99.6649 46.0512C100.274 46.7027 100.617 47.5863 100.617 48.5076C100.617 49.4289 100.274 50.3125 99.6649 50.964C99.0556 51.6155 98.2292 51.9815 97.3675 51.9815C96.5058 51.9815 95.6794 51.6155 95.0701 50.964C94.4608 50.3125 94.1185 49.4289 94.1185 48.5076C94.1185 47.5863 94.4608 46.7027 95.0701 46.0512C95.6794 45.3997 96.5058 45.0337 97.3675 45.0337ZM76.249 33.7437C77.1107 33.7437 77.9371 34.1097 78.5464 34.7611C79.1557 35.4126 79.498 36.2962 79.498 37.2175C79.498 38.1389 79.1557 39.0224 78.5464 39.6739C77.9371 40.3254 77.1107 40.6914 76.249 40.6914C75.3873 40.6914 74.5609 40.3254 73.9516 39.6739C73.3423 39.0224 73 38.1389 73 37.2175C73 36.2962 73.3423 35.4126 73.9516 34.7611C74.5609 34.1097 75.3873 33.7437 76.249 33.7437ZM86.8083 33.7437C87.67 33.7437 88.4963 34.1097 89.1057 34.7611C89.715 35.4126 90.0573 36.2962 90.0573 37.2175C90.0573 38.1389 89.715 39.0224 89.1057 39.6739C88.4963 40.3254 87.67 40.6914 86.8083 40.6914C85.9466 40.6914 85.1202 40.3254 84.5109 39.6739C83.9016 39.0224 83.5593 38.1389 83.5593 37.2175C83.5593 36.2962 83.9016 35.4126 84.5109 34.7611C85.1202 34.1097 85.9466 33.7437 86.8083 33.7437ZM97.3675 33.7437C98.2292 33.7437 99.0556 34.1097 99.6649 34.7611C100.274 35.4126 100.617 36.2962 100.617 37.2175C100.617 38.1389 100.274 39.0224 99.6649 39.6739C99.0556 40.3254 98.2292 40.6914 97.3675 40.6914C96.5058 40.6914 95.6794 40.3254 95.0701 39.6739C94.4608 39.0224 94.1185 38.1389 94.1185 37.2175C94.1185 36.2962 94.4608 35.4126 95.0701 34.7611C95.6794 34.1097 96.5058 33.7437 97.3675 33.7437ZM76.249 22.4536C77.1107 22.4536 77.9371 22.8196 78.5464 23.4711C79.1557 24.1226 79.498 25.0062 79.498 25.9275C79.498 26.8488 79.1557 27.7324 78.5464 28.3839C77.9371 29.0353 77.1107 29.4013 76.249 29.4013C75.3873 29.4013 74.5609 29.0353 73.9516 28.3839C73.3423 27.7324 73 26.8488 73 25.9275C73 25.0062 73.3423 24.1226 73.9516 23.4711C74.5609 22.8196 75.3873 22.4536 76.249 22.4536ZM86.8083 22.4536C87.67 22.4536 88.4963 22.8196 89.1057 23.4711C89.715 24.1226 90.0573 25.0062 90.0573 25.9275C90.0573 26.8488 89.715 27.7324 89.1057 28.3839C88.4963 29.0353 87.67 29.4013 86.8083 29.4013C85.9466 29.4013 85.1202 29.0353 84.5109 28.3839C83.9016 27.7324 83.5593 26.8488 83.5593 25.9275C83.5593 25.0062 83.9016 24.1226 84.5109 23.4711C85.1202 22.8196 85.9466 22.4536 86.8083 22.4536ZM97.3675 22.4536C98.2292 22.4536 99.0556 22.8196 99.6649 23.4711C100.274 24.1226 100.617 25.0062 100.617 25.9275C100.617 26.8488 100.274 27.7324 99.6649 28.3839C99.0556 29.0353 98.2292 29.4013 97.3675 29.4013C96.5058 29.4013 95.6794 29.0353 95.0701 28.3839C94.4608 27.7324 94.1185 26.8488 94.1185 25.9275C94.1185 25.0062 94.4608 24.1226 95.0701 23.4711C95.6794 22.8196 96.5058 22.4536 97.3675 22.4536Z" fill="black"/>
<path d="M87.772 90.9864L87.7541 90.9899L87.6388 91.0507L87.6063 91.0576L87.5836 91.0507L87.4682 90.9899C87.4509 90.9841 87.4379 90.987 87.4292 90.9986L87.4227 91.0159L87.3951 91.7593L87.4032 91.7941L87.4195 91.8167L87.5884 91.9452L87.6128 91.9521L87.6323 91.9452L87.8012 91.8167L87.8207 91.7889L87.8272 91.7593L87.7996 91.0177C87.7953 90.9991 87.7861 90.9887 87.772 90.9864ZM88.2025 90.7901L88.1814 90.7936L87.8808 90.9551L87.8646 90.9725L87.8597 90.9916L87.889 91.7385L87.8971 91.7593L87.9101 91.7715L88.2366 91.933C88.2572 91.9388 88.2729 91.9342 88.2837 91.9191L88.2902 91.8948L88.235 90.8283C88.2296 90.8075 88.2187 90.7948 88.2025 90.7901ZM87.041 90.7936C87.0338 90.789 87.0253 90.7875 87.0171 90.7894C87.0089 90.7913 87.0018 90.7966 86.9971 90.804L86.9874 90.8283L86.9321 91.8948C86.9332 91.9157 86.9424 91.9296 86.9597 91.9365L86.9841 91.933L87.3106 91.7715L87.3269 91.7576L87.3334 91.7385L87.361 90.9916L87.3561 90.9708L87.3399 90.9534L87.041 90.7936Z" fill="black"/>
<path d="M76.249 79.2486C77.1107 79.2486 77.9371 79.6146 78.5464 80.266C79.1557 80.9175 79.498 81.8011 79.498 82.7224C79.498 83.6438 79.1557 84.5273 78.5464 85.1788C77.9371 85.8303 77.1107 86.1963 76.249 86.1963C75.3873 86.1963 74.5609 85.8303 73.9516 85.1788C73.3423 84.5273 73 83.6438 73 82.7224C73 81.8011 73.3423 80.9175 73.9516 80.266C74.5609 79.6146 75.3873 79.2486 76.249 79.2486ZM86.8083 79.2486C87.67 79.2486 88.4963 79.6146 89.1057 80.266C89.715 80.9175 90.0573 81.8011 90.0573 82.7224C90.0573 83.6438 89.715 84.5273 89.1057 85.1788C88.4963 85.8303 87.67 86.1963 86.8083 86.1963C85.9466 86.1963 85.1202 85.8303 84.5109 85.1788C83.9016 84.5273 83.5593 83.6438 83.5593 82.7224C83.5593 81.8011 83.9016 80.9175 84.5109 80.266C85.1202 79.6146 85.9466 79.2486 86.8083 79.2486ZM97.3675 79.2486C98.2292 79.2486 99.0556 79.6146 99.6649 80.266C100.274 80.9175 100.617 81.8011 100.617 82.7224C100.617 83.6438 100.274 84.5273 99.6649 85.1788C99.0556 85.8303 98.2292 86.1963 97.3675 86.1963C96.5058 86.1963 95.6794 85.8303 95.0701 85.1788C94.4608 84.5273 94.1185 83.6438 94.1185 82.7224C94.1185 81.8011 94.4608 80.9175 95.0701 80.266C95.6794 79.6146 96.5058 79.2486 97.3675 79.2486ZM76.249 67.9585C77.1107 67.9585 77.9371 68.3245 78.5464 68.976C79.1557 69.6275 79.498 70.5111 79.498 71.4324C79.498 72.3537 79.1557 73.2373 78.5464 73.8888C77.9371 74.5402 77.1107 74.9062 76.249 74.9062C75.3873 74.9062 74.5609 74.5402 73.9516 73.8888C73.3423 73.2373 73 72.3537 73 71.4324C73 70.5111 73.3423 69.6275 73.9516 68.976C74.5609 68.3245 75.3873 67.9585 76.249 67.9585ZM86.8083 67.9585C87.67 67.9585 88.4963 68.3245 89.1057 68.976C89.715 69.6275 90.0573 70.5111 90.0573 71.4324C90.0573 72.3537 89.715 73.2373 89.1057 73.8888C88.4963 74.5402 87.67 74.9062 86.8083 74.9062C85.9466 74.9062 85.1202 74.5402 84.5109 73.8888C83.9016 73.2373 83.5593 72.3537 83.5593 71.4324C83.5593 70.5111 83.9016 69.6275 84.5109 68.976C85.1202 68.3245 85.9466 67.9585 86.8083 67.9585ZM97.3675 67.9585C98.2292 67.9585 99.0556 68.3245 99.6649 68.976C100.274 69.6275 100.617 70.5111 100.617 71.4324C100.617 72.3537 100.274 73.2373 99.6649 73.8888C99.0556 74.5402 98.2292 74.9062 97.3675 74.9062C96.5058 74.9062 95.6794 74.5402 95.0701 73.8888C94.4608 73.2373 94.1185 72.3537 94.1185 71.4324C94.1185 70.5111 94.4608 69.6275 95.0701 68.976C95.6794 68.3245 96.5058 67.9585 97.3675 67.9585ZM76.249 56.6685C77.1107 56.6685 77.9371 57.0345 78.5464 57.6859C79.1557 58.3374 79.498 59.221 79.498 60.1423C79.498 61.0636 79.1557 61.9472 78.5464 62.5987C77.9371 63.2502 77.1107 63.6162 76.249 63.6162C75.3873 63.6162 74.5609 63.2502 73.9516 62.5987C73.3423 61.9472 73 61.0636 73 60.1423C73 59.221 73.3423 58.3374 73.9516 57.6859C74.5609 57.0345 75.3873 56.6685 76.249 56.6685ZM86.8083 56.6685C87.67 56.6685 88.4963 57.0345 89.1057 57.6859C89.715 58.3374 90.0573 59.221 90.0573 60.1423C90.0573 61.0636 89.715 61.9472 89.1057 62.5987C88.4963 63.2502 87.67 63.6162 86.8083 63.6162C85.9466 63.6162 85.1202 63.2502 84.5109 62.5987C83.9016 61.9472 83.5593 61.0636 83.5593 60.1423C83.5593 59.221 83.9016 58.3374 84.5109 57.6859C85.1202 57.0345 85.9466 56.6685 86.8083 56.6685ZM97.3675 56.6685C98.2292 56.6685 99.0556 57.0345 99.6649 57.6859C100.274 58.3374 100.617 59.221 100.617 60.1423C100.617 61.0636 100.274 61.9472 99.6649 62.5987C99.0556 63.2502 98.2292 63.6162 97.3675 63.6162C96.5058 63.6162 95.6794 63.2502 95.0701 62.5987C94.4608 61.9472 94.1185 61.0636 94.1185 60.1423C94.1185 59.221 94.4608 58.3374 95.0701 57.6859C95.6794 57.0345 96.5058 56.6685 97.3675 56.6685Z" fill="black"/>
</svg>
