<svg width="72" height="99" viewBox="0 0 72 99" fill="none" xmlns="http://www.w3.org/2000/svg">
<path fill-rule="evenodd" clip-rule="evenodd" d="M36.5336 96.8974C38.4678 90.7721 38.5576 89.5703 44.6111 84.9007C46.6155 83.3549 48.5315 81.8768 49.0326 80.3551L53.9748 65.3452C56.7542 56.9038 50.8835 50.514 41.7224 47.6382C40.7374 47.329 40.2 46.2813 40.5238 45.2978L47.2982 24.7233C49.6874 17.4672 42.9507 15.3147 39.8141 17.1956C38.4511 18.0131 37.3973 19.531 36.7753 21.42L23.8639 60.633C23.0925 62.9758 19.5241 61.8557 20.2956 59.5128L23.6939 49.1919C18.9884 51.1093 8.94402 56.0354 8.01606 61.2394C7.67775 63.1315 8.17151 63.8956 9.13814 66.1691C14.2615 78.2225 13.5185 79.4208 10.3949 88.6921L36.5336 96.8974ZM28.6951 26.7058C29.3477 29.061 25.7334 30.0896 25.0807 27.7345C21.3903 14.4107 34.2006 1.90607 47.6601 6.13126C61.1197 10.3564 64.0652 27.8082 53.1155 36.535C51.1794 38.0776 48.8573 35.1853 50.7923 33.6425C59.3819 26.7952 57.1214 13.0284 46.4882 9.69044C35.8572 6.35317 25.8011 16.2513 28.6951 26.7058Z" fill="#16A34A"/>
</svg>
