<svg width="102" height="114" viewBox="0 0 102 114" fill="none" xmlns="http://www.w3.org/2000/svg">
<path d="M1.05483 5.34565C0.962983 4.97765 0.917058 4.59432 0.917058 4.21611C0.917058 3.72545 0.998701 3.2348 1.1773 2.76965C1.52938 1.85989 2.18252 1.0933 3.23875 0.566795C4.69304 -0.143638 7.10654 -0.302075 10.8468 0.771236C16.9292 2.51916 20.8991 4.09855 23.6086 5.17695C24.8179 5.65739 25.7568 6.0356 26.4508 6.25026C29.3645 7.13958 40.5901 12.2609 46.3822 14.9032C47.3619 15.3428 47.8365 15.7108 48.1528 15.9408C49.204 15.0157 50.6123 13.8862 52.0206 12.7413C54.1128 11.0393 56.2508 9.3169 57.011 8.48893C57.2662 8.21805 57.654 7.74273 58.0826 7.21118C60.2155 4.60454 63.1037 1.06265 66.8337 1.6657H66.8439C68.5329 1.93658 70.8597 3.14788 72.6814 4.55849C73.6918 5.33536 74.5898 6.20422 75.2124 7.0526C76.1768 8.36102 76.5748 9.76142 76.0849 11.1108C75.8961 11.6321 75.5951 12.0921 75.1613 12.4857C73.7172 13.8043 71.8701 14.0906 70.074 14.3665C69.1045 14.5148 68.1553 14.663 67.9818 14.8163C67.3134 15.4398 66.1959 16.7278 65.0427 18.0567L64.8131 18.3276C66.1908 18.5985 67.5226 18.9001 68.8238 19.2527C71.6404 20.0143 74.2684 20.9598 76.7023 22.0637C77.9575 22.6259 78.5239 24.1081 77.9575 25.3654C77.8044 25.7078 77.5799 26.0043 77.3146 26.2343C74.8908 28.5393 71.0586 30.4713 66.3591 31.7798C61.9097 33.0217 56.6334 33.7526 50.9998 33.7526C45.397 33.7526 40.1515 33.0319 35.7071 31.8002C30.9616 30.4815 27.1091 28.5444 24.67 26.2241C23.6648 25.2683 23.6342 23.689 24.5782 22.6822C24.8333 22.4113 25.1395 22.2171 25.4609 22.0842C26.5121 21.6089 27.5938 21.1591 28.7012 20.7502L28.0378 20.4538C25.9406 19.5236 24.2159 18.7212 23.328 18.2152C20.6236 16.6921 18.0059 15.7517 15.9291 15.0106L15.6535 14.9135V14.9238C13.9543 14.3104 9.56085 12.0053 6.49931 10.4006C5.40224 9.8179 4.46842 9.32724 3.96328 9.07172C2.6672 8.42773 1.43248 6.87898 1.05483 5.34565ZM98.3837 44.3274C95.22 36.6558 89.9388 29.8785 82.2184 24.9929C82.1521 25.6829 81.9786 26.378 81.6775 27.0424C81.2846 27.9113 80.7386 28.6575 80.0498 29.2657C77.1412 32.0052 72.7835 34.2336 67.4462 35.7209C62.4812 37.106 56.7918 37.842 50.9948 37.842C45.2287 37.842 39.5597 37.1162 34.61 35.7413C30.6708 34.6475 27.2774 33.15 24.5883 31.3458C1.16135 52.5815 10.5614 96.4293 36.702 108.43C26.7263 106.667 18.6178 100.268 13.117 91.7019C8.94303 85.2059 6.24881 77.4781 5.34055 69.5609C4.43228 61.6643 5.30483 53.6099 8.25932 46.4384C11.0046 39.7788 15.5919 33.8653 22.2562 29.531C22.1235 29.4135 21.9806 29.301 21.8582 29.1835C20.6693 28.0539 20.0161 26.5768 19.8682 25.0589C12.1376 29.9808 6.83078 36.8143 3.6467 44.5374C0.355511 52.526 -0.624205 61.4344 0.370794 70.1236C1.36582 78.7817 4.33041 87.2665 8.91274 94.4013C17.7607 108.166 32.5788 116.998 51.0301 112.95C69.083 117.12 83.8205 108.426 92.7398 94.7651C97.4344 87.579 100.506 79.0078 101.573 70.2322C102.654 61.4361 101.715 52.4102 98.3834 44.3294L98.3837 44.3274Z" fill="#E5EDE8"/>
</svg>
