<svg width="80" height="74" viewBox="0 0 80 74" fill="none" xmlns="http://www.w3.org/2000/svg">
<path d="M79.6246 17.0849C79.4683 16.3944 78.9683 15.8044 78.234 15.4153L68.062 9.97992C66.8745 9.35227 65.4214 9.12632 64.0308 9.37738L56.6558 10.7206C55.562 10.9214 54.6089 11.4361 53.9683 12.1767L50.3121 16.4322L44.4371 22.0308C43.7652 22.6836 43.5777 23.5497 43.8746 24.3281C43.0152 24.2402 42.1246 24.4536 41.4527 24.9557L34.9371 29.8388L21.9371 30.0271C20.3746 30.0522 18.8902 30.6045 17.8902 31.5711L10.1246 38.9146C8.816 40.082 9.44491 42.125 11.2808 42.6679C12.3589 43.0194 13.6089 42.8311 14.4527 42.1784L20.5152 37.5212L19.1714 42.4796L15.3433 52.6353L9.8433 56.6522C7.9097 57.9734 9.14799 60.7571 11.7027 60.7822C12.484 60.8041 13.2613 60.5844 13.8433 60.1545L20.8121 54.9952C21.9762 54.424 24.6949 48.7093 25.4059 47.6768L30.7497 48.9949L28.3435 58.4218H20.656C19.781 58.4218 19.0935 58.9867 19.0935 59.6771V70.9246H1.5625C0.70312 70.9246 0 71.4895 0 72.1799C0 72.8703 0.70312 73.4352 1.5625 73.4352H69.6565C70.5315 73.4352 71.219 72.8703 71.219 72.1799V47.3375C71.219 46.647 70.5315 46.0822 69.6565 46.0822H68.6721L67.3127 36.2157C67.4299 35.0075 69.1135 26.8892 68.7971 25.8215L67.5315 16.5576L74.8753 19.8465C77.1683 20.9574 80.2184 19.1718 79.6246 17.0849ZM58.0466 36.5044L60.3435 32.9268L60.156 37.5965L61.531 46.0819H57.7185L58.0466 36.5044ZM46.9216 26.123C47.906 26.1355 48.8747 25.8217 49.531 25.2192L54.9841 20.3235L55.4529 26.5748L51.6716 34.0062C51.3279 34.6966 51.1404 35.4121 51.1404 36.1528V46.0818H43.8435C42.9685 46.0818 42.281 46.6467 42.281 47.3371V58.4215H34.8904L37.7966 47.8642C38.1716 46.4457 37.2966 45.0021 35.6716 44.3493L29.8747 42.0396L32.3903 35.0225C34.4958 34.8781 38.0739 35.308 39.6091 33.8174L45.7653 28.382C46.3278 27.8924 46.6091 27.2522 46.5466 26.5743C46.488 26.2197 46.3513 26.0132 46.9216 26.123Z" fill="#16A34A"/>
<path d="M58.7496 9.35226C66.441 9.15141 66.4566 0.200847 58.7496 0C51.0621 0.197706 51.0777 9.15704 58.7496 9.35226Z" fill="#16A34A"/>
<path d="M27.7107 28.9856C35.406 28.7941 35.4216 19.8285 27.7107 19.6333C20.0232 19.831 20.0388 28.7903 27.7107 28.9856Z" fill="#16A34A"/>
</svg>
