<svg width="88" height="86" viewBox="0 0 88 86" fill="none" xmlns="http://www.w3.org/2000/svg">
<path d="M86.1875 0C87.1707 0.093 88.0043 1.01248 88 1.99988V19.9994C87.9632 25.9483 84.0033 27.4395 82 27.8116V55.9983H86C87.0472 55.9984 87.9999 56.9511 88 57.9982V63.9981C87.9999 65.0452 87.0472 65.9979 86 65.998H82V81.9976C83.0616 81.9975 84.1753 81.9976 85.2188 81.9976C86.266 82.0546 87.1669 83.0596 87.1096 84.1069C87.0523 85.1541 86.0473 86.0548 85 85.9974C56.6837 85.9974 27.3405 85.9974 3 85.9974C1.94337 86.0124 0.97152 85.0542 0.97152 83.9976C0.97152 82.9409 1.94337 81.9827 3 81.9976H6V65.998H2C0.95283 65.9979 0.0001 65.0452 0 63.9981V57.9982C0.0001 56.9511 0.95283 55.9984 2 55.9983H6V27.8116C3.92831 27.4895 0.02513 25.9828 0 19.9994V1.99988C0.0001 0.952778 0.95283 0.0001 2 0C31.8845 0 61.8583 0 86.1875 0ZM84 20.0306H76C75.9876 23.0042 77.9708 23.9808 80 23.9993C82.8984 24.0273 83.9762 22.4288 84 20.0306ZM72 20.0306H64C63.9876 23.0042 65.9708 23.9808 68 23.9993C70.0732 23.9523 71.9762 22.4287 72 20.0306ZM60 20.0306H52C52.0936 22.4207 53.9708 23.9808 56 23.9993C58.1558 24.0273 59.9762 22.4287 60 20.0306ZM48 20.0306H40C39.934 22.6329 41.9711 23.9808 44 23.9993C45.9967 23.9743 47.9762 22.6939 48 20.0306ZM36 20.0306H28C28.0401 22.6859 29.9711 23.9808 32 23.9993C33.9967 24.0273 35.9231 22.6939 36 20.0306ZM24 20.0306H16C15.9871 22.6859 17.9711 23.9808 20 23.9993C22.0497 23.9743 24.0292 22.6409 24 20.0306ZM12 20.0306H4C4.0401 22.6329 5.97111 23.9808 8 23.9993C10.0497 24.0273 11.9231 22.747 12 20.0306ZM74.0312 25.8742C72.6943 27.2283 70.5977 27.9992 68 27.9992C65.4118 27.9992 63.3635 27.2192 62.0312 25.8742C60.6943 27.2283 58.5977 27.9992 56 27.9992C53.4118 27.9992 51.3635 27.2192 50.0312 25.8742C48.6943 27.2283 46.5977 27.9992 44 27.9992C41.4118 27.9992 39.3635 27.2192 38.0312 25.8742C36.6943 27.2283 34.5977 27.9992 32 27.9992C29.4118 27.9992 27.3635 27.2192 26.0312 25.8742C24.6943 27.2283 22.5977 27.9992 20 27.9992C17.4118 27.9992 15.3635 27.2192 14.0312 25.8742C13.0561 26.8619 11.6839 27.5162 10 27.8116V55.9983H13.625C14.4105 53.9315 15.3508 52.1001 16.5625 50.4359C17.9059 49.1592 18.2424 48.9323 19.9062 49.1237C20.6253 47.608 21.7438 46.1114 23 45.155V39.5927C21.3321 38.9204 19.6679 38.5862 18 38.0303C19.6672 37.1967 21.3328 36.3471 23 36.0928C23.0141 35.3675 23.5503 35.0149 24.125 34.9996C24.6068 35.0096 25.0192 35.5361 25 36.0308V45.1555C26.5099 46.1541 27.396 47.6787 28.0938 49.1554C29.4617 48.7694 30.6355 49.4332 31.4688 50.4366C32.7345 52.1467 33.6765 54.1543 34.4062 55.999H38.0938C36.8139 54.7268 36.0312 52.9669 36.0312 51.0304C36.0312 47.483 38.6922 44.5003 42.125 44.0618C41.9971 39.3869 45.05 35.9455 48.75 35.9996C49.8839 33.6565 52.246 31.9997 55 31.9997C57.7541 31.9997 60.1475 33.6565 61.2813 35.9996C65.0385 36.0756 68.0456 39.3497 67.9063 44.0618C71.3286 44.5138 74.0001 47.4936 74.0001 51.0304C74.0001 52.9669 73.194 54.7268 71.9063 55.999H78.0001V27.8123C76.3321 27.5184 75.0017 26.8539 74.0312 25.8742ZM55 36.0301C53.3195 36.0301 52 37.3496 52 39.03C52 40.7105 53.3195 41.9987 55 41.9987C56.6805 41.9987 58.0312 40.7105 58.0312 39.03C58.0312 37.3496 56.6805 36.0301 55 36.0301ZM61.875 40.155C61.5447 42.1789 60.3661 43.9225 58.6875 44.9673C59.2833 45.6757 60.4433 46.0468 61 45.9983C62.4336 46.0393 63.9999 44.8063 64.0312 43.0302C64.0312 41.6525 63.1282 40.5193 61.875 40.155ZM48.125 40.155C46.8794 40.5193 46 41.6522 46 43.0299C46.3613 45.0872 47.3677 45.9063 49 45.9983C50.0732 45.9353 50.6484 45.5952 51.3125 44.936C49.6522 43.8885 48.4523 42.1654 48.125 40.155ZM67 48.0297C65.3195 48.0297 64 49.3492 64 51.0297C64 52.7101 65.3195 53.9984 67 53.9984C68.6805 53.9984 70.0312 52.7101 70.0312 51.0297C70.0312 49.3492 68.6805 48.0297 67 48.0297ZM55 48.0297C53.3195 48.0297 52 49.3492 52 51.0297C52 52.7101 53.3195 53.9984 55 53.9984C56.6805 53.9984 58.0312 52.7101 58.0312 51.0297C58.0312 49.3492 56.6805 48.0297 55 48.0297ZM43 48.0297C41.3195 48.0297 40 49.3492 40 51.0297C40 52.7101 41.3195 53.9984 43 53.9984C44.6805 53.9984 46.0312 52.7101 46.0312 51.0297C46.0312 49.3492 44.6805 48.0297 43 48.0297ZM24 49.9672C23.4849 50.7133 23.0875 51.6839 22.75 52.4358C23.1933 53.2486 23.6405 54.1515 24.0312 55.0607C24.4124 54.1554 24.8086 53.2452 25.25 52.4358C24.9266 51.5292 24.4577 50.7482 24 49.9672ZM29 53.9671C28.5648 54.5805 28.2317 55.3741 27.9375 55.9983H30.0625C29.7578 55.2583 29.3562 54.5575 29 53.9671ZM19 53.9671C18.5648 54.5805 18.2317 55.3741 17.9375 55.9983H20.0625C19.7578 55.2583 19.3562 54.5575 19 53.9671ZM61 54.5921C60.6952 55.1038 60.327 55.58 59.9062 55.9983H62.0938C61.6734 55.5798 61.3045 55.1051 61 54.5921ZM49 54.5921C48.6952 55.1038 48.327 55.58 47.9062 55.9983H50.0938C49.6734 55.5798 49.3045 55.1051 49 54.5921ZM84 59.9982H4V61.9981H84V59.9982Z" fill="currentColor"/>
</svg>
