<svg width="85" height="108" viewBox="0 0 85 108" fill="none" xmlns="http://www.w3.org/2000/svg">
<path d="M85 51.5904V59.0568C84.9854 61.3098 83.1627 63.1337 80.9065 63.1483H4.09353C1.83717 63.1337 0.0145966 61.3097 0 59.0568V51.5904C0.0194933 49.3422 1.84703 47.533 4.09353 47.5378H80.9065C83.1531 47.533 84.9805 49.3422 85 51.5904ZM5.14049 70.6879L9.21456 101.538L9.21943 101.543C9.70189 105.24 12.8501 108 16.5732 108H25.7449C26.5197 107.995 27.2654 107.683 27.8111 107.132C28.3569 106.576 28.6591 105.83 28.6493 105.054C28.6542 103.426 29.97 102.109 31.5928 102.109H53.0261C54.6538 102.109 55.9696 103.426 55.9696 105.054C55.9745 106.678 57.2903 107.995 58.9131 108H68.4599C72.1735 107.985 75.307 105.225 75.7797 101.543L79.8586 70.6878L5.14049 70.6879ZM68.6107 10.8361V2.8724C68.6204 2.1165 68.328 1.385 67.7968 0.843676C67.2656 0.307231 66.5395 0.00486894 65.7793 0H59.1418C58.3815 0 57.6506 0.302362 57.1145 0.843676C56.5736 1.38012 56.2714 2.1116 56.2714 2.8724V10.841C56.6856 17.1076 51.4419 20.9212 49.2879 26.0571C47.7479 29.0465 48.6397 36.6543 48.4204 39.9897H76.4621V30.9628C76.9884 22.8869 68.1238 18.9953 68.6111 10.8416L68.6107 10.8361ZM27.7427 19.6776C30.8909 21.9404 33.3325 25.0518 34.7895 28.646C36.2467 32.2401 36.656 36.1707 35.9688 39.9892H40.8763V31.1526C41.0176 25.3785 43.1472 19.8288 46.9143 15.4446C43.9854 12.9331 40.0429 11.948 36.2759 12.7771C32.5088 13.611 29.346 16.1615 27.7427 19.6776ZM28.6102 34.82H28.6151C28.4104 32.9034 27.7768 31.0552 26.7632 29.4166V29.3776C19.1412 17.7807 6.04226 28.0268 8.91167 39.9894H28.274C28.7272 38.3069 28.8441 36.5464 28.6151 34.8152L28.6102 34.82Z" fill="#E5EDE8"/>
</svg>
