<svg width="155" height="91" viewBox="0 0 155 91" fill="none" xmlns="http://www.w3.org/2000/svg">
<path d="M56.3487 0.0156443C42.9424 0.0587828 30.4738 1.64769 21.9897 5.73144C16.1731 8.52814 12.2088 11.9648 9.59232 15.6674C8.86434 15.5955 8.15799 15.4373 7.74715 15.2001C6.70923 14.6033 5.5632 13.5968 4.99378 12.2812C4.42437 10.9655 4.3595 9.34054 5.57761 7.24122C6.62273 5.43662 7.45876 5.04122 9.81579 3.68235V3.67516C10.1978 3.44509 10.1978 2.8843 9.81579 2.65423C9.12385 2.25881 8.0499 2.06469 6.7814 2.24442C5.50563 2.42416 4.05681 3.02808 2.76667 4.31502C1.06564 6.01896 -0.094827 8.70784 0.00610399 11.5045C0.0998056 14.3084 1.50531 17.2132 4.56147 18.9746C5.31107 19.4059 6.21204 19.7223 7.18512 19.9451C4.41736 26.3942 4.9652 33.1812 6.49318 38.6524C7.27882 41.4563 8.31673 43.9224 9.30412 45.8276C10.2916 47.7329 11.1997 49.0628 11.8268 49.6956C12.8792 50.7453 13.2756 52.2694 13.3044 53.9662C13.3333 55.6702 12.9945 57.5107 12.6485 59.114C12.3818 60.3578 11.5169 61.4506 10.6015 62.5938C9.68606 63.7369 8.71313 64.9375 8.42473 66.4547C8.21571 67.5403 8.35986 69.4743 8.64816 71.9189C8.94369 74.3561 9.39776 77.2535 9.86627 80.0215C10.8177 85.5718 11.8556 90.6476 11.8556 90.6476C11.8988 90.8561 12.079 90.9999 12.288 90.9999H22.7609C23.042 90.9999 23.251 90.7483 23.2005 90.4751C22.905 88.8358 21.8383 87.9874 20.9085 87.3692C20.4472 87.06 20.0219 86.7868 19.7048 86.4921C19.3948 86.1973 19.2002 85.9097 19.1282 85.4855C18.4074 81.2723 17.2614 76.7645 19.0993 71.9907C19.0993 72.0266 19.1642 71.8828 19.2867 71.7175C19.4093 71.5521 19.5823 71.3292 19.7985 71.0632C20.2309 70.5383 20.8292 69.841 21.5283 69.0357C22.7032 67.7056 24.2167 66.0304 25.7016 64.3984C25.6439 65.7572 25.6511 67.1736 25.8169 68.2376C26.6025 73.2488 29.5866 83.0193 29.5866 83.0193V83.0481L31.7993 88.8933C31.8642 89.0587 32.0227 89.1737 32.2029 89.1809L43.0433 89.5116C43.2956 89.5188 43.5046 89.3175 43.5046 89.0658C43.5046 87.7645 42.6397 86.873 41.7604 86.1397C40.8738 85.4064 39.9296 84.7593 39.4611 83.9828C38.1997 81.9266 37.3925 78.0874 37.133 74.3559C36.8736 70.6244 37.1619 66.9435 37.8394 65.2969C37.8826 65.1963 38.1637 64.8152 38.589 64.3838C39.0215 63.9525 39.5836 63.442 40.2251 62.8956C41.4432 61.8459 42.9136 60.6956 44.1461 59.7466C63.2824 64.1323 77.0419 63.8159 85.5334 62.6512C85.5046 65.1028 85.7208 69.9485 85.9659 74.4205C86.2181 79.1656 86.4848 83.3644 86.4848 83.3644C86.4848 83.4148 86.5137 83.4651 86.5209 83.5154L89.303 89.8064C89.3751 89.9646 89.5337 90.0724 89.7066 90.0724H98.8965C99.1416 90.0724 99.3434 89.8711 99.3434 89.6266C99.3434 87.8939 98.392 86.8658 97.4911 86.0462C96.5901 85.2338 95.7684 84.5867 95.5449 83.4868C95.408 82.8038 95.3936 81.5312 95.4801 79.9855C95.5738 78.4326 95.754 76.5919 95.9918 74.6796C96.381 71.5161 96.8856 68.3528 97.3324 65.822L98.8244 69.9632C98.8244 69.992 98.8533 70.0207 98.8605 70.0423C101.916 75.0751 102.226 80.9777 104.619 86.3699C105.261 87.815 106.832 90.7627 106.832 90.7627C106.911 90.9065 107.056 91 107.221 91H116.606C116.851 91 117.053 90.7987 117.053 90.5542C117.053 88.498 116.217 87.1463 115.229 86.111C114.242 85.0757 113.139 84.3064 112.433 83.2782C111.87 82.4514 111.387 80.3448 111.121 77.7566C110.847 75.1684 110.739 72.0623 110.71 69.086C110.659 63.3559 110.912 58.3303 110.933 57.9277C117.326 55.0375 123.251 54.6133 129.529 54.4982C135.893 54.376 142.626 54.5701 150.461 52.7584C151.873 52.4348 152.89 51.644 153.574 50.6806C154.252 49.7172 154.62 48.5813 154.807 47.5027C155.189 45.3458 154.886 43.3687 154.886 43.3687C154.857 43.1745 154.699 43.0164 154.504 42.9948C153.293 42.8366 149.632 42.0098 147.7 40.0831C145.768 38.1563 145.523 35.1653 143.649 32.6707C140.247 28.1485 137.544 23.8922 137.04 23.087C137.674 22.5262 138.244 21.7066 138.755 20.7215C139.361 19.5712 139.88 18.2051 140.255 16.8391C140.629 15.473 140.86 14.107 140.882 12.9279C140.882 11.7488 140.73 10.7351 140.096 10.1023C139.743 9.75004 139.253 9.60625 138.698 9.54154C138.143 9.48402 137.501 9.51278 136.802 9.60625C135.397 9.78599 133.732 10.2102 132.096 10.6847C130.459 11.1592 128.852 11.6912 127.576 12.0938C126.942 12.2952 126.387 12.4677 125.969 12.5756C125.659 12.6618 125.443 12.6906 125.335 12.7122C123.785 11.2742 120.693 9.8722 116.404 8.45591C111.965 6.98922 106.27 5.55853 99.8339 4.30034C86.9465 1.77677 71.075 -0.0494115 56.3358 0.00101931L56.3487 0.0156443Z" fill="#E5EDE8"/>
</svg>
