<svg width="80" height="111" viewBox="0 0 80 111" fill="none" xmlns="http://www.w3.org/2000/svg">
<path d="M75.3539 98.1125C81.103 76.2064 80.37 53.096 73.2296 31.6006C74.5072 30.9321 75.2994 29.61 75.2945 28.174V22.425C75.2846 20.3106 73.601 18.5875 71.4866 18.5379C71.7094 15.0173 70.0556 11.6401 67.134 9.65945C64.2125 7.67875 60.4641 7.39151 57.2752 8.90183C54.6458 7.25288 51.4025 6.92608 48.4957 8.01547C47.6985 4.01947 44.5443 0.909693 40.5334 0.166981C36.5225 -0.575782 32.467 1.2019 30.2933 4.6533C25.2723 3.04897 19.8748 5.64364 17.9982 10.5707C13.0465 10.3132 8.65424 13.72 7.67384 18.5776C5.74272 18.8301 4.29177 20.4741 4.28683 22.4251V28.1742C4.28188 29.4814 4.93551 30.7045 6.02984 31.4225C-0.268826 50.2445 -1.66019 70.3581 1.98428 89.8634C4.2076 89.8188 23.732 89.898 26.4853 89.8634C27.5697 89.8782 28.4413 90.7646 28.4413 91.849C28.4413 92.9334 27.5698 93.8149 26.4853 93.8297C23.6281 93.8346 5.21804 93.8247 2.79558 93.8297C3.0283 95.9936 4.54847 98.2961 3.58785 100.43C2.7312 102.158 2.59255 104.159 3.20657 105.986C3.82059 107.818 5.1377 109.329 6.86588 110.185C8.59405 111.042 10.5945 111.181 12.4217 110.562C14.2489 109.943 15.7591 108.625 16.6158 106.892C17.2496 105.342 18.2895 103.867 20.1465 103.921H59.0378C60.2905 103.906 61.4393 104.619 61.9939 105.743C62.5732 107.714 63.9499 109.348 65.7919 110.25C67.6388 111.156 69.773 111.245 71.6844 110.497C73.5957 109.749 75.106 108.234 75.8488 106.323C76.5916 104.407 76.4975 102.272 75.5914 100.43C75.2249 99.7123 75.141 98.8849 75.3539 98.1125ZM17.448 14.5129C18.1214 14.5624 18.7899 14.6565 19.4485 14.7902C20.2061 14.7753 20.8894 14.3297 21.2113 13.6414C21.5678 10.5416 24.1625 8.17959 27.2821 8.12508C28.5102 8.20431 29.7036 8.53608 30.7929 9.10057C31.699 9.30854 32.6299 8.85299 33.0112 8.00624C33.9669 5.24316 36.7646 3.5596 39.6565 4.02014C42.5433 4.48561 44.6824 6.95651 44.7221 9.87804C44.6924 10.4425 44.628 11.0021 44.529 11.5567C44.529 12.0815 44.737 12.5817 45.1133 12.9531C45.4847 13.3245 45.9848 13.5324 46.5097 13.5275C47.0544 13.5027 47.5694 13.2749 47.9556 12.8986C50.2384 10.9031 53.6353 10.8684 55.9527 12.8194C56.1953 13.0224 56.4875 13.1462 56.7994 13.1858C57.3045 13.2799 57.8294 13.171 58.2651 12.8887C60.0972 11.6805 62.4493 11.5715 64.3854 12.6015C66.3264 13.6364 67.5446 15.6468 67.5594 17.8454C67.5594 18.0831 67.5396 18.3009 67.5198 18.5386H11.798C12.6299 16.1321 14.8979 14.5178 17.448 14.5129ZM24.0486 61.5347L23.9892 60.3067C23.9595 59.7422 24.1724 59.1876 24.5785 58.7865C24.9845 58.3904 25.544 58.1873 26.1085 58.227C30.5304 58.1576 34.774 59.9452 37.8045 63.1638V57.3752C34.1105 57.3406 30.5849 55.8353 28.005 53.1959C25.4202 50.5518 23.999 46.9915 24.0486 43.2974L23.9892 42.0694C23.9594 41.4999 24.1724 40.9503 24.5784 40.5492C24.9844 40.1531 25.544 39.9451 26.1085 39.9897C31.7682 39.8065 37.0468 42.8073 39.7901 47.7589C42.5234 42.8122 47.7971 39.8115 53.4464 39.9897C54.0109 39.9748 54.5507 40.1878 54.9567 40.5789C55.3578 40.9701 55.5856 41.5099 55.5856 42.0694L55.5262 43.2975C55.5757 46.9915 54.1496 50.5518 51.5697 53.191C48.9898 55.8303 45.4642 57.3356 41.7702 57.3753V63.1836C44.7858 59.9501 49.0295 58.1476 53.4463 58.2269C54.0108 58.212 54.5506 58.4249 54.9566 58.8161C55.3577 59.2073 55.5855 59.747 55.5855 60.3066L55.526 61.5346C55.5805 65.2287 54.1545 68.789 51.5746 71.4332C48.9897 74.0724 45.4641 75.5777 41.7701 75.6125V82.7677C41.7503 83.8521 40.8689 84.7187 39.7894 84.7187C38.705 84.7187 37.8235 83.8472 37.8038 82.7677V75.6125C34.1097 75.5827 30.5792 74.0775 27.9993 71.4381C25.4145 68.7939 23.9941 65.2287 24.0486 61.5347ZM31.0851 91.849C31.0851 91.3191 31.293 90.8141 31.6644 90.4427C32.0358 90.0713 32.5409 89.8633 33.0707 89.8633H39.7902C40.8846 89.8633 41.7709 90.7546 41.7709 91.849C41.7709 92.9433 40.8846 93.8296 39.7902 93.8296H33.0707C31.9764 93.8247 31.09 92.9384 31.0851 91.849Z" fill="#E5EDE8"/>
<path d="M28.095 62.3713C28.298 67.4716 32.4426 71.5321 37.5478 71.6261C36.9338 66.719 33.017 62.8814 28.095 62.3713Z" fill="#E5EDE8"/>
<path d="M28.095 44.1287C28.298 49.2338 32.4426 53.2944 37.5478 53.3884C36.9338 48.4812 33.017 44.6437 28.095 44.1287Z" fill="#E5EDE8"/>
<path d="M51.4869 44.1287C46.555 44.6387 42.6233 48.4714 41.9895 53.3884C47.1047 53.2943 51.2641 49.2389 51.4869 44.1287Z" fill="#E5EDE8"/>
<path d="M51.4869 62.3713C46.555 62.8764 42.6233 66.7091 41.9895 71.6261C47.1047 71.537 51.2641 67.4816 51.4869 62.3713Z" fill="#E5EDE8"/>
</svg>
