<svg width="329" height="51" viewBox="0 0 329 51" fill="none" xmlns="http://www.w3.org/2000/svg">
<path d="M25.375 0C24.9714 0 24.5998 0.223019 24.4297 0.583984L19.4141 10.625H69.543L63.4766 0.520508C63.2853 0.191166 62.9343 3.89056e-05 62.5625 0H314C322.284 3.57563e-06 329 6.71573 329 15V36C329 44.2843 322.284 51 314 51H249.732C250.687 50.1181 251.465 49.0887 252.064 47.9092C253.077 45.9493 253.583 43.7115 253.583 41.1963V13.8535H246.675V17.7246C245.793 16.4507 244.584 15.4217 243.049 14.6377C241.513 13.821 239.732 13.4131 237.707 13.4131C235.388 13.4131 233.281 13.9848 231.387 15.1279C229.525 16.2713 228.038 17.905 226.928 20.0283C225.85 22.1516 225.311 24.5851 225.311 27.3291C225.311 30.1056 225.85 32.5716 226.928 34.7275C228.038 36.8509 229.541 38.5008 231.436 39.6768C233.33 40.8527 235.421 41.4413 237.707 41.4414C239.7 41.4414 241.464 41.0162 242.999 40.167C244.567 39.3177 245.793 38.2564 246.675 36.9824V41.1963C246.675 43.6134 246.054 45.41 244.812 46.5859C243.571 47.7946 241.954 48.3994 239.961 48.3994C238.263 48.3994 236.809 48.0236 235.601 47.2725C234.425 46.5538 233.656 45.5734 233.297 44.332H226.486C226.773 47.0596 227.881 49.2818 229.809 51H91.2412V37.1289C92.1885 38.3702 93.4134 39.3992 94.916 40.2158C96.4513 41.0325 98.2153 41.4414 100.208 41.4414C102.527 41.4414 104.618 40.8528 106.48 39.6768C108.375 38.5008 109.862 36.8507 110.939 34.7275C112.05 32.5717 112.605 30.1055 112.605 27.3291C112.605 24.5526 112.05 22.1189 110.939 20.0283C109.862 17.9051 108.375 16.2713 106.48 15.1279C104.618 13.9846 102.527 13.4131 100.208 13.4131C98.2155 13.4131 96.4351 13.8373 94.8672 14.6865C93.3319 15.5032 92.1232 16.5331 91.2412 17.7744V13.8535H84.3809V51H68.9375C69.5219 51 70 50.5219 70 49.9375V41.4375H19V49.9375C19 50.5219 19.4781 51 20.0625 51H15C6.71573 51 3.38257e-07 44.2843 0 36V15C0 6.71573 6.71573 0 15 0H25.375ZM128.223 13.4131C125.904 13.4131 123.797 13.9848 121.902 15.1279C120.04 16.2713 118.554 17.905 117.443 20.0283C116.365 22.1516 115.826 24.5851 115.826 27.3291C115.826 30.1056 116.365 32.5716 117.443 34.7275C118.554 36.8509 120.04 38.5008 121.902 39.6768C123.797 40.8527 125.887 41.4414 128.174 41.4414C130.199 41.4414 131.979 41.0324 133.515 40.2158C135.083 39.3665 136.308 38.3052 137.19 37.0312V41H144.099V13.8535H137.19V17.7246C136.276 16.4833 135.05 15.4544 133.515 14.6377C132.012 13.8212 130.248 13.4131 128.223 13.4131ZM176.295 13.4131C173.616 13.4131 171.247 13.9846 169.189 15.1279C167.132 16.2713 165.531 17.905 164.388 20.0283C163.244 22.1515 162.673 24.6176 162.673 27.4268C162.673 30.2034 163.244 32.654 164.388 34.7773C165.564 36.9004 167.181 38.5497 169.238 39.7256C171.329 40.8689 173.682 41.4414 176.295 41.4414C179.529 41.4414 182.256 40.6082 184.478 38.9424C186.699 37.2437 188.201 35.087 188.985 32.4736H181.587C180.509 34.6623 178.695 35.7568 176.147 35.7568C174.384 35.7568 172.897 35.2014 171.688 34.0908C170.48 32.9802 169.794 31.4451 169.631 29.4854H189.476C189.606 28.7014 189.672 27.8189 189.672 26.8389C189.672 24.193 189.1 21.8573 187.957 19.832C186.846 17.7742 185.262 16.1898 183.204 15.0791C181.179 13.9685 178.875 13.4131 176.295 13.4131ZM300.757 13.4131C298.078 13.4131 295.709 13.9846 293.651 15.1279C291.593 16.2713 289.993 17.905 288.85 20.0283C287.706 22.1515 287.135 24.6176 287.135 27.4268C287.135 30.2034 287.706 32.654 288.85 34.7773C290.026 36.9004 291.643 38.5497 293.7 39.7256C295.791 40.8689 298.143 41.4414 300.757 41.4414C303.991 41.4414 306.718 40.6082 308.939 38.9424C311.161 37.2437 312.663 35.087 313.447 32.4736H306.049C304.971 34.6623 303.157 35.7568 300.609 35.7568C298.845 35.7568 297.359 35.2014 296.15 34.0908C294.942 32.9802 294.256 31.4451 294.093 29.4854H313.938C314.068 28.7014 314.134 27.8189 314.134 26.8389C314.134 24.193 313.562 21.8573 312.419 19.832C311.308 17.7742 309.724 16.1898 307.666 15.0791C305.641 13.9685 303.337 13.4131 300.757 13.4131ZM150.799 41H157.659V4.74023H150.799V41ZM209.722 13.4619C208.023 13.4619 206.455 13.8052 205.018 14.4912C203.613 15.1445 202.454 16.0594 201.539 17.2354V13.8535H194.679V41H201.539V26.0059C201.539 23.8499 202.078 22.1999 203.156 21.0566C204.267 19.8809 205.77 19.293 207.664 19.293C209.526 19.293 210.996 19.8807 212.074 21.0566C213.152 22.1999 213.69 23.8499 213.69 26.0059V41H220.551V25.0752C220.551 21.4165 219.554 18.5742 217.562 16.5488C215.569 14.491 212.956 13.4619 209.722 13.4619ZM260.283 41H267.144V29.4355L276.355 41H285.273L273.22 27.4756L285.176 13.8535H276.258L267.144 25.3691V4.74023H260.283V41ZM70 19.6777C69.66 19.9752 69.309 20.2408 68.9053 20.4639C67.9705 20.9737 66.9295 21.2499 65.8779 21.25C64.8048 21.25 63.7525 20.963 62.8281 20.4424C61.9038 20.9736 60.8514 21.25 59.7783 21.25C58.7053 21.2499 57.643 20.9628 56.7188 20.4316C55.7945 20.9628 54.7322 21.2499 53.6592 21.25C52.5861 21.25 51.5337 20.963 50.6094 20.4424C49.685 20.9736 48.6327 21.25 47.5596 21.25C46.4866 21.2499 45.4243 20.9628 44.5 20.4316C43.5757 20.9628 42.5134 21.2499 41.4404 21.25C40.3673 21.25 39.315 20.963 38.3906 20.4424C37.4663 20.9736 36.4139 21.25 35.3408 21.25C34.2678 21.2499 33.2055 20.9628 32.2812 20.4316C31.357 20.9628 30.2947 21.2499 29.2217 21.25C28.1486 21.25 27.0963 20.963 26.1719 20.4424C25.2475 20.963 24.1952 21.25 23.1221 21.25C22.0705 21.2499 21.0295 20.9737 20.0947 20.4639C19.691 20.2408 19.34 19.9752 19 19.6777V39.3125H70V19.6777ZM53 24.8203C54.02 23.6622 55.6561 23.0563 57.4092 23.5449C59.2153 24.0549 60.4586 25.808 60.4375 27.6885C60.4375 28.071 60.3846 28.4326 60.2783 28.7832C62.4988 29.2614 64.0709 31.4716 63.5078 33.9365C63.1677 35.4558 61.946 36.6983 60.4268 37.0596C58.7374 37.4633 57.165 36.8578 56.1875 35.7422L56.1768 35.7314C55.4011 36.6133 54.275 37.1875 53 37.1875C51.725 37.1875 50.5989 36.6133 49.8232 35.7314L49.8125 35.7422C48.8244 36.8578 47.2626 37.4633 45.5732 37.0596C44.054 36.6983 42.8323 35.4558 42.4922 33.9365C41.9397 31.4716 43.5118 29.2614 45.7217 28.7832C45.6261 28.4326 45.5731 28.071 45.5625 27.6885C45.5414 25.808 46.774 24.0549 48.5908 23.5449C50.3439 23.0563 51.9907 23.6622 53 24.8203ZM98.3945 19.4404C99.6685 19.4404 100.845 19.7505 101.923 20.3711C103.034 20.9918 103.916 21.9066 104.569 23.1152C105.255 24.2912 105.598 25.6959 105.598 27.3291C105.598 28.9949 105.255 30.4321 104.569 31.6406C103.916 32.8493 103.033 33.7803 101.923 34.4336C100.845 35.0869 99.6685 35.4141 98.3945 35.4141C97.1535 35.414 95.9776 35.1039 94.8672 34.4834C93.7892 33.8301 92.9067 32.899 92.2207 31.6904C91.5674 30.4818 91.2412 29.0601 91.2412 27.4268C91.2412 25.7936 91.5675 24.3726 92.2207 23.1641C92.9067 21.9554 93.7892 21.0406 94.8672 20.4199C95.9777 19.7667 97.1534 19.4405 98.3945 19.4404ZM129.987 19.4404C131.261 19.4405 132.454 19.7666 133.564 20.4199C134.675 21.0406 135.557 21.9555 136.21 23.1641C136.863 24.34 137.19 25.7609 137.19 27.4268C137.19 29.0928 136.863 30.5306 136.21 31.7393C135.557 32.9151 134.675 33.8301 133.564 34.4834C132.454 35.104 131.261 35.414 129.987 35.4141C128.746 35.4141 127.57 35.0869 126.459 34.4336C125.381 33.7803 124.498 32.8492 123.812 31.6406C123.159 30.3994 122.833 28.9622 122.833 27.3291C122.833 25.6959 123.159 24.2912 123.812 23.1152C124.498 21.9066 125.381 20.9918 126.459 20.3711C127.537 19.7504 128.713 19.4404 129.987 19.4404ZM239.472 19.4404C240.746 19.4405 241.938 19.7666 243.049 20.4199C244.159 21.0406 245.041 21.9555 245.694 23.1641C246.348 24.34 246.675 25.7609 246.675 27.4268C246.675 29.0928 246.348 30.5306 245.694 31.7393C245.041 32.9151 244.159 33.8301 243.049 34.4834C241.938 35.104 240.746 35.414 239.472 35.4141C238.23 35.4141 237.054 35.0869 235.943 34.4336C234.865 33.7803 233.983 32.8492 233.297 31.6406C232.644 30.3994 232.317 28.9622 232.317 27.3291C232.317 25.6959 232.644 24.2912 233.297 23.1152C233.983 21.9066 234.865 20.9918 235.943 20.3711C237.021 19.7504 238.198 19.4404 239.472 19.4404ZM46.625 30.8125C45.4562 30.8125 44.5 31.7687 44.5 32.9375C44.5 34.1063 45.4562 35.0625 46.625 35.0625C47.7938 35.0625 48.75 34.1063 48.75 32.9375C48.75 32.4275 48.5696 31.9383 48.2402 31.5664C47.8046 31.3964 47.4113 31.1627 47.0713 30.8652C46.9332 30.8334 46.7844 30.8125 46.625 30.8125ZM53.4785 30.8867C53.1704 30.8123 52.819 30.8123 52.5215 30.8867C52.1921 31.1735 51.8098 31.3973 51.3955 31.5566C51.0663 31.9391 50.875 32.4276 50.875 32.9375C50.875 34.1063 51.8312 35.0625 53 35.0625C54.1688 35.0625 55.125 34.1063 55.125 32.9375C55.125 32.4276 54.9337 31.9391 54.6045 31.5566C54.1902 31.3973 53.8079 31.1735 53.4785 30.8867ZM59.375 30.8125C59.2156 30.8125 59.0668 30.8334 58.9287 30.8652C58.5887 31.1627 58.1954 31.3964 57.7598 31.5664C57.4304 31.9383 57.25 32.4275 57.25 32.9375C57.25 34.1063 58.2062 35.0625 59.375 35.0625C60.5438 35.0625 61.5 34.1063 61.5 32.9375C61.5 31.7687 60.5438 30.8125 59.375 30.8125ZM50.4717 25.6064C49.0267 25.1496 47.6875 26.2438 47.6875 27.625C47.6875 28.2411 47.9531 28.7934 48.3779 29.1865C48.6009 29.3883 48.856 29.5479 49.1533 29.6436C49.1851 29.6541 49.2172 29.6652 49.249 29.6758C49.4296 29.7289 49.6213 29.75 49.8125 29.75C50.0037 29.75 50.1846 29.7289 50.3652 29.6758C50.3757 29.6756 50.3861 29.6653 50.3965 29.665H50.4072C50.4284 29.6544 50.4602 29.6434 50.4814 29.6328C50.7471 29.5584 50.9817 29.421 51.1836 29.251C51.2367 29.1872 51.2897 29.1333 51.3428 29.0908C51.7888 28.634 52.0221 27.986 51.9053 27.2637C51.7884 26.4989 51.2152 25.8297 50.4717 25.6064ZM58.3125 27.625C58.3125 26.2544 57.0057 25.1813 55.582 25.585C54.8383 25.7975 54.2542 26.4459 54.1055 27.2109C53.9674 27.9546 54.2114 28.6556 54.6895 29.123L54.7422 29.1758C54.9653 29.3883 55.2211 29.5478 55.5186 29.6328C55.5503 29.6434 55.5716 29.6544 55.5928 29.665C55.6031 29.665 55.6029 29.6654 55.6133 29.6758C55.6239 29.6758 55.6348 29.6865 55.6348 29.6865C55.8154 29.729 55.9963 29.75 56.1875 29.75C56.3787 29.75 56.5704 29.7289 56.751 29.6758C56.7828 29.6652 56.8149 29.6541 56.8467 29.6436C57.144 29.5479 57.3991 29.3883 57.6221 29.1865C58.0469 28.7934 58.3125 28.2411 58.3125 27.625ZM176.099 19.0479C177.895 19.0479 179.414 19.5872 180.655 20.665C181.897 21.7104 182.534 23.115 182.566 24.8789H169.68C169.941 23.0496 170.644 21.6289 171.787 20.6162C172.963 19.571 174.4 19.0479 176.099 19.0479ZM300.561 19.0479C302.357 19.0479 303.876 19.5872 305.117 20.665C306.358 21.7104 306.996 23.115 307.028 24.8789H294.142C294.403 23.0496 295.106 21.6289 296.249 20.6162C297.425 19.571 298.862 19.0479 300.561 19.0479ZM19 15.0029C19.0002 16.554 19.8607 17.9033 21.125 18.6045C21.7199 18.9338 22.3997 19.1249 23.1221 19.125C24.3332 19.125 25.4175 18.5834 26.1719 17.7441C26.9262 18.5834 28.0105 19.125 29.2217 19.125C30.4433 19.1249 31.527 18.5833 32.2812 17.7441C33.0355 18.5833 34.1192 19.1249 35.3408 19.125C36.552 19.125 37.6363 18.5834 38.3906 17.7441C39.145 18.5834 40.2293 19.125 41.4404 19.125C42.662 19.1249 43.7457 18.5833 44.5 17.7441C45.2543 18.5833 46.338 19.1249 47.5596 19.125C48.7707 19.125 49.855 18.5834 50.6094 17.7441C51.3637 18.5834 52.448 19.125 53.6592 19.125C54.8808 19.1249 55.9645 18.5833 56.7188 17.7441C57.473 18.5833 58.5567 19.1249 59.7783 19.125C60.9895 19.125 62.0738 18.5834 62.8281 17.7441C63.5825 18.5834 64.6668 19.125 65.8779 19.125C66.6003 19.1249 67.2801 18.9338 67.875 18.6045C69.1393 17.9033 69.9998 16.554 70 15.0029V12.75H19V15.0029Z" fill="#F1FDF6"/>
</svg>
