<svg width="50" height="114" viewBox="0 0 50 114" fill="none" xmlns="http://www.w3.org/2000/svg">
<path d="M25.2082 113.996C25.0208 114.006 24.8286 113.996 24.6363 113.981C24.5525 113.976 24.4638 113.971 24.38 113.961C24.1384 113.927 23.8969 113.872 23.6553 113.793C23.6257 113.783 23.5912 113.778 23.5616 113.768C22.2257 113.283 21.22 112.235 20.7764 110.973L1.62896 55.2171L15.8065 55.3309C15.9544 55.3259 16.0924 55.3012 16.2354 55.2814C16.9305 55.1775 17.5615 54.8806 18.0496 54.3908C18.3108 54.1285 18.5179 53.8168 18.6806 53.4753C18.8827 53.0548 19.0109 52.5946 19.0158 52.1097C19.0158 51.9761 18.9911 51.8425 18.9763 51.7089C18.8925 51.036 18.6066 50.4027 18.1432 49.9078C18.1186 49.8781 18.0988 49.8484 18.0742 49.8236C17.8721 49.6208 17.6404 49.4624 17.3939 49.3239C16.9108 49.0468 16.3685 48.8885 15.8065 48.8885L4.97585 48.8835L0.0904348 48.8786C-0.861016 37.4831 5.75969 26.5033 16.9006 22.6487C17.1421 22.5646 17.3886 22.4953 17.6351 22.4211C18.1626 22.2578 18.695 22.1143 19.2274 21.9857C19.3161 21.9659 19.3999 21.9411 19.4887 21.9213C21.3373 21.4958 23.1958 21.283 25.0346 21.283H25.3255C25.4536 21.283 25.5917 21.283 25.7199 21.2979C25.8579 21.2979 26.0107 21.2979 26.1537 21.3127H26.2178C27.6523 21.382 29.0622 21.5849 30.4426 21.9015C30.4328 21.9015 30.418 21.9065 30.4081 21.9114C34.4949 22.8219 38.3007 24.7418 41.4557 27.4979C41.505 27.5424 41.5543 27.587 41.6036 27.6315C41.9241 27.9135 42.2396 28.2104 42.5452 28.5123L42.8459 28.8141C43.0924 29.0664 43.3389 29.3237 43.5755 29.586C43.7037 29.7246 43.8269 29.868 43.9502 30.0165C44.1523 30.254 44.3495 30.4915 44.5467 30.734C44.6798 30.9022 44.8178 31.0754 44.946 31.2486C45.1186 31.4811 45.2911 31.7137 45.4538 31.9512C45.5869 32.1442 45.72 32.3322 45.8482 32.5301C46.0059 32.7676 46.1538 33.015 46.3066 33.2575C46.4299 33.4604 46.5531 33.6583 46.6714 33.8612C46.8242 34.1284 46.9672 34.4005 47.1052 34.6726C47.2038 34.8656 47.3074 35.0487 47.406 35.2466C47.5785 35.593 47.7363 35.9492 47.8891 36.3055C47.9433 36.4292 48.0025 36.5529 48.0567 36.6816C48.2637 37.1813 48.4609 37.691 48.6335 38.2105C50.5166 43.7028 50.3933 49.4279 48.6335 54.5093L41.2289 76.1726L25.0296 76.1677H25.0198H25C24.9261 76.1677 24.8521 76.1825 24.7782 76.1924C24.6402 76.2023 24.5021 76.2073 24.374 76.232C24.2704 76.2518 24.1768 76.2914 24.0782 76.3211C23.9796 76.3508 23.8761 76.3755 23.7824 76.4151C23.6148 76.4844 23.4521 76.5784 23.2993 76.6774C23.2845 76.6873 23.2598 76.6972 23.2451 76.707C22.3922 77.281 21.8302 78.2608 21.8302 79.3741C21.8253 79.8194 21.9091 80.24 22.0668 80.626C22.1112 80.7348 22.1753 80.8388 22.2344 80.9427C22.2739 81.0169 22.3084 81.101 22.3577 81.1703C22.4415 81.2989 22.5401 81.4078 22.6436 81.5216C22.6781 81.5612 22.7077 81.6057 22.7422 81.6403C22.8654 81.764 22.9985 81.8729 23.1366 81.9719C23.1612 81.9917 23.181 82.0114 23.2056 82.0312C23.3634 82.1401 23.531 82.2292 23.7084 82.3083C23.7183 82.3133 23.7282 82.3232 23.743 82.3281C23.9303 82.4073 24.1225 82.4667 24.3247 82.5112C24.3296 82.5112 24.3345 82.5161 24.3345 82.5161C24.5219 82.5557 24.719 82.5706 24.9162 82.5755C24.936 82.5755 24.9507 82.5805 24.9705 82.5805H24.9803C24.9951 82.5805 25.0099 82.5854 25.0247 82.5854L39.0003 82.6102L29.2887 110.973C29.195 111.25 29.0718 111.508 28.9288 111.755C28.9042 111.799 28.8746 111.839 28.845 111.884C28.7267 112.077 28.5887 112.26 28.4457 112.428C28.4013 112.477 28.3569 112.527 28.3126 112.576C28.1598 112.735 28.002 112.883 27.8295 113.017C27.7851 113.051 27.7457 113.086 27.7013 113.121C27.2675 113.437 26.7844 113.675 26.2668 113.823C26.1879 113.848 26.109 113.863 26.0301 113.878C25.8477 113.922 25.6653 113.952 25.478 113.972C25.3893 113.987 25.2956 113.992 25.2069 113.996L25.2082 113.996ZM23.9265 11.8963C23.0736 9.83792 21.7623 7.6954 19.7509 5.67651C13.707 -0.389907 6.43534 -0.147458 4.247 0.0951181C4.00543 2.29211 3.76388 9.58559 9.80772 15.6567C12.3416 18.2 15.1023 19.6448 17.6116 20.4217C19.2532 19.9467 20.9194 19.6448 22.6004 19.4914C22.5906 17.5815 22.8172 14.8603 23.9265 11.8963ZM30.1774 5.67651C28.166 7.6954 26.8547 9.84286 26.0166 11.8863C25.5187 13.064 25.1884 14.1971 24.9616 15.261C24.6313 16.8444 24.5426 18.2645 24.5426 19.3877C24.7102 19.3728 24.8729 19.3728 25.0405 19.3728C27.5744 19.3728 30.0442 19.7291 32.3957 20.3971C34.8902 19.6202 37.6163 18.1853 40.1354 15.6568C46.1794 9.59037 45.9279 2.29169 45.6863 0.0952081C43.4925 -0.137348 36.2212 -0.394746 30.1774 5.67651Z" fill="#E5EDE8"/>
</svg>
